ISO-10303-21;
HEADER;
FILE_DESCRIPTION (( 'STEP AP214' ),
    '1' );
FILE_NAME ('Nosecone metal tip.STEP',
    '2026-05-18T23:57:17',
    ( '' ),
    ( '' ),
    'SwSTEP 2.0',
    'SolidWorks 2025',
    '' );
FILE_SCHEMA (( 'AUTOMOTIVE_DESIGN' ));
ENDSEC;

DATA;
#1 = CARTESIAN_POINT ( 'NONE',  ( -2.442951364153564217E-17, 0.1084454863782670364, -0.1856490194793825044 ) ) ;
#2 = AXIS2_PLACEMENT_3D ( 'NONE', #341, #409, #136 ) ;
#3 = DIRECTION ( 'NONE',  ( 0.000000000000000000, 0.000000000000000000, 1.000000000000000000 ) ) ;
#4 = CARTESIAN_POINT ( 'NONE',  ( -1.585530692720985095E-17, 0.05683009390154280388, -0.1156353084216678595 ) ) ;
#5 = CARTESIAN_POINT ( 'NONE',  ( 0.01777740379014089087, 0.001839143305495788069, -0.008888701895070455841 ) ) ;
#6 = ORIENTED_EDGE ( 'NONE', *, *, #146, .F. ) ;
#7 = FACE_OUTER_BOUND ( 'NONE', #58, .T. ) ;
#8 = ORIENTED_EDGE ( 'NONE', *, *, #30, .T. ) ;
#9 = EDGE_CURVE ( 'NONE', #250, #385, #289, .T. ) ;
#10 = CIRCLE ( 'NONE', #318, 22.03669608011332315 ) ;
#11 = DIRECTION ( 'NONE',  ( 0.000000000000000000, 0.000000000000000000, -1.000000000000000000 ) ) ;
#12 = CARTESIAN_POINT ( 'NONE',  ( -3.428561438775296580E-15, 2.741493898304631015E-14, 1.710045554651377774E-15 ) ) ;
#13 = CARTESIAN_POINT ( 'NONE',  ( 0.000000000000000000, 68.89233859750463296, 0.000000000000000000 ) ) ;
#14 = CARTESIAN_POINT ( 'NONE',  ( -0.01777740379014090127, 0.001839143305495788069, -0.008888701895070445433 ) ) ;
#15 = EDGE_CURVE ( 'NONE', #164, #106, #333, .T. ) ;
#16 = CARTESIAN_POINT ( 'NONE',  ( 2.479128643981306279, 1.372217083362482049, -1.239564321990653584 ) ) ;
#17 = CARTESIAN_POINT ( 'NONE',  ( 1.027573009659559732E-16, 0.3168166732488152393, 0.4126219704400139188 ) ) ;
#18 = LINE ( 'NONE', #159, #384 ) ;
#19 = CARTESIAN_POINT ( 'NONE',  ( 8.375653759258153030, 6.971087135205732643, 4.187826879629074739 ) ) ;
#20 = CIRCLE ( 'NONE', #406, 5.525000000000000355 ) ;
#21 = CARTESIAN_POINT ( 'NONE',  ( -1.615099194278382685E-15, 33.01549136552644370, -13.17445266265497494 ) ) ;
#22 = CARTESIAN_POINT ( 'NONE',  ( 1.694065894508616856E-18, 4.024603962495519660, 2.778864406596471159 ) ) ;
#23 = VERTEX_POINT ( 'NONE', #315 ) ;
#24 = CARTESIAN_POINT ( 'NONE',  ( -8.916617284774579182E-18, 0.02291031148714136115, -0.05897660774759384134 ) ) ;
#25 = CARTESIAN_POINT ( 'NONE',  ( -2.479128643981306279, 1.372217083362482049, -1.239564321990653140 ) ) ;
#26 = B_SPLINE_CURVE_WITH_KNOTS ( 'NONE', 4,
 ( #420, #440, #275, #99, #94, #349, #418, #308, #376, #236, #66, #60, #239, #370, #448, #209, #277, #347, #34, #379, #205 ),
 .UNSPECIFIED., .F., .F.,
 ( 5, 1, 1, 1, 1, 1, 1, 1, 1, 1, 1, 1, 1, 1, 1, 1, 1, 5 ),
 ( 0.000000000000000000, 0.0001145544574394275112, 0.0002291089148788550225, 0.0004582178297577100450, 0.0008356273135694523325, 0.001213036797381194729, 0.001843101546187343167, 0.002742750432452018168, 0.004125600431661326575, 0.006458657274379612373, 0.01028141745121161944, 0.01700547481764008370, 0.02866140081497297459, 0.04776443037332009367, 0.07896298847159936851, 0.1315160094079196873, 0.1941941538041540849, 0.2300160315052604543 ),
 .UNSPECIFIED. ) ;
#27 = FACE_BOUND ( 'NONE', #63, .T. ) ;
#28 = ORIENTED_EDGE ( 'NONE', *, *, #380, .T. ) ;
#29 = CARTESIAN_POINT ( 'NONE',  ( 0.000000000000000000, 68.89233859750463296, 5.525000000000000355 ) ) ;
#30 = EDGE_CURVE ( 'NONE', #106, #164, #294, .T. ) ;
#31 = CARTESIAN_POINT ( 'NONE',  ( -8.375653759258151254, 6.971087135205732643, 4.187826879629076515 ) ) ;
#32 = ORIENTED_EDGE ( 'NONE', *, *, #269, .F. ) ;
#33 = CARTESIAN_POINT ( 'NONE',  ( 3.428561438775296580E-15, 2.741493898304631015E-14, -1.710045554651377183E-15 ) ) ;
#34 = CARTESIAN_POINT ( 'NONE',  ( 1.694065894508600678E-18, 58.53750916376334601, 19.69842663117253778 ) ) ;
#35 = CARTESIAN_POINT ( 'NONE',  ( 1.694065894508654797E-18, 20.50959668899019306, 9.321209841098399451 ) ) ;
#36 = CARTESIAN_POINT ( 'NONE',  ( 0.000000000000000000, 68.89233859750463296, -3.036985568141257000E-13 ) ) ;
#37 =( BOUNDED_SURFACE ( )  B_SPLINE_SURFACE ( 4, 3, ( 
 ( #153, #12, #217, #183 ),
 ( #224, #5, #185, #290 ),
 ( #45, #397, #352, #320 ),
 ( #107, #358, #427, #114 ),
 ( #4, #359, #257, #188 ),
 ( #1, #143, #284, #76 ),
 ( #423, #285, #252, #391 ),
 ( #222, #357, #229, #17 ),
 ( #331, #230, #50, #297 ),
 ( #400, #337, #364, #195 ),
 ( #231, #16, #92, #86 ),
 ( #201, #121, #435, #429 ),
 ( #199, #296, #234, #265 ),
 ( #232, #156, #19, #433 ),
 ( #367, #362, #332, #293 ),
 ( #49, #125, #158, #405 ),
 ( #267, #56, #431, #336 ),
 ( #401, #88, #295, #292 ),
 ( #270, #365, #52, #268 ),
 ( #118, #122, #85, #261 ),
 ( #369, #194, #160, #54 ) ),
 .UNSPECIFIED., .F., .F., .F. ) 
 B_SPLINE_SURFACE_WITH_KNOTS ( ( 5, 1, 1, 1, 1, 1, 1, 1, 1, 1, 1, 1, 1, 1, 1, 1, 1, 5 ),
 ( 4, 4 ),
 ( 0.000000000000000000, 0.0001145544574394275112, 0.0002291089148788550225, 0.0004582178297577100450, 0.0008356273135694523325, 0.001213036797381194729, 0.001843101546187343167, 0.002742750432452018168, 0.004125600431661326575, 0.006458657274379612373, 0.01028141745121161944, 0.01700547481764008370, 0.02866140081497297459, 0.04776443037332009367, 0.07896298847159936851, 0.1315160094079196873, 0.1941941538041540849, 0.2300160315052615090 ),
 ( 0.000000000000000000, 1.000000000000000000 ),
 .UNSPECIFIED. ) 
 GEOMETRIC_REPRESENTATION_ITEM ( )  RATIONAL_B_SPLINE_SURFACE ( (
 ( 1.000000000000000000, 0.3333333333333334259, 0.3333333333333334259, 1.000000000000000000),
 ( 1.000000000000000000, 0.3333333333333334259, 0.3333333333333334259, 1.000000000000000000),
 ( 1.000000000000000000, 0.3333333333333334259, 0.3333333333333334259, 1.000000000000000000),
 ( 1.000000000000000000, 0.3333333333333334259, 0.3333333333333334259, 1.000000000000000000),
 ( 1.000000000000000000, 0.3333333333333334259, 0.3333333333333334259, 1.000000000000000000),
 ( 1.000000000000000000, 0.3333333333333334259, 0.3333333333333334259, 1.000000000000000000),
 ( 1.000000000000000000, 0.3333333333333334259, 0.3333333333333334259, 1.000000000000000000),
 ( 1.000000000000000000, 0.3333333333333334259, 0.3333333333333334259, 1.000000000000000000),
 ( 1.000000000000000000, 0.3333333333333334259, 0.3333333333333334259, 1.000000000000000000),
 ( 1.000000000000000000, 0.3333333333333334259, 0.3333333333333334259, 1.000000000000000000),
 ( 1.000000000000000000, 0.3333333333333334259, 0.3333333333333334259, 1.000000000000000000),
 ( 1.000000000000000000, 0.3333333333333334259, 0.3333333333333334259, 1.000000000000000000),
 ( 1.000000000000000000, 0.3333333333333334259, 0.3333333333333334259, 1.000000000000000000),
 ( 1.000000000000000000, 0.3333333333333334259, 0.3333333333333334259, 1.000000000000000000),
 ( 1.000000000000000000, 0.3333333333333334259, 0.3333333333333334259, 1.000000000000000000),
 ( 1.000000000000000000, 0.3333333333333334259, 0.3333333333333334259, 1.000000000000000000),
 ( 1.000000000000000000, 0.3333333333333334259, 0.3333333333333334259, 1.000000000000000000),
 ( 1.000000000000000000, 0.3333333333333334259, 0.3333333333333334259, 1.000000000000000000),
 ( 1.000000000000000000, 0.3333333333333334259, 0.3333333333333334259, 1.000000000000000000),
 ( 1.000000000000000000, 0.3333333333333334259, 0.3333333333333334259, 1.000000000000000000),
 ( 1.000000000000000000, 0.3333333333333334259, 0.3333333333333334259, 1.000000000000000000) ) ) 
 REPRESENTATION_ITEM ( '' )  SURFACE ( )  );
#38 = CARTESIAN_POINT ( 'NONE',  ( -1.534969138208198823E-16, 1.372217083362482049, -1.239564321990653362 ) ) ;
#39 = CARTESIAN_POINT ( 'NONE',  ( -3.684170974535036169, 2.325596474790781354, 1.842085487267518307 ) ) ;
#40 = DIRECTION ( 'NONE',  ( -0.000000000000000000, 1.000000000000000000, -0.000000000000000000 ) ) ;
#41 = DIRECTION ( 'NONE',  ( 0.000000000000000000, 0.000000000000000000, 1.000000000000000000 ) ) ;
#42 = CARTESIAN_POINT ( 'NONE',  ( 0.000000000000000000, 48.89233859750462585, 0.000000000000000000 ) ) ;
#43 = DIRECTION ( 'NONE',  ( 0.000000000000000000, 0.000000000000000000, 1.000000000000000000 ) ) ;
#44 = DIRECTION ( 'NONE',  ( 0.000000000000000000, 0.000000000000000000, 1.000000000000000000 ) ) ;
#45 = CARTESIAN_POINT ( 'NONE',  ( -4.901292274133570634E-18, 0.007057294233763714529, -0.02618899083276881451 ) ) ;
#46 = CARTESIAN_POINT ( 'NONE',  ( 1.694065894508602219E-18, 0.1910420470109902291, 0.2829179674119176591 ) ) ;
#47 = EDGE_LOOP ( 'NONE', ( #212, #163, #216 ) ) ;
#48 = DIRECTION ( 'NONE',  ( -0.000000000000000000, 1.000000000000000000, -0.000000000000000000 ) ) ;
#49 = CARTESIAN_POINT ( 'NONE',  ( -1.143213045502704902E-15, 20.50959668899019306, -9.321209841098399451 ) ) ;
#50 = CARTESIAN_POINT ( 'NONE',  ( 1.176799479391972936, 0.5085918143657101043, 0.5883997396959862458 ) ) ;
#51 = ADVANCED_FACE ( 'NONE', ( #27, #282 ), #387, .F. ) ;
#52 = CARTESIAN_POINT ( 'NONE',  ( 39.39685326234516083, 58.53750916376352365, 19.69842663117256976 ) ) ;
#53 = VECTOR ( 'NONE', #220, 1000.000000000000000 ) ;
#54 = CARTESIAN_POINT ( 'NONE',  ( 5.399127929128877677E-15, 68.89233859788996028, 22.03669607838060784 ) ) ;
#55 = PRODUCT_DEFINITION_SHAPE ( 'NONE', 'NONE',  #180 ) ;
#56 = CARTESIAN_POINT ( 'NONE',  ( 26.34890532530994633, 33.01549136552644370, -13.17445266265498027 ) ) ;
#57 = FACE_OUTER_BOUND ( 'NONE', #316, .T. ) ;
#58 = EDGE_LOOP ( 'NONE', ( #110, #343, #140, #327 ) ) ;
#59 = ORIENTED_EDGE ( 'NONE', *, *, #354, .F. ) ;
#60 = CARTESIAN_POINT ( 'NONE',  ( 1.694065894508600678E-18, 2.325596474790780910, 1.842085487267518529 ) ) ;
#61 = AXIS2_PLACEMENT_3D ( 'NONE', #219, #356, #79 ) ;
#62 = CARTESIAN_POINT ( 'NONE',  ( -1.143213045502704902E-15, 20.50959668899019306, -9.321209841098399451 ) ) ;
#63 = EDGE_LOOP ( 'NONE', ( #75, #73 ) ) ;
#64 = CYLINDRICAL_SURFACE ( 'NONE', #263, 5.499999999999996447 ) ;
#65 = CARTESIAN_POINT ( 'NONE',  ( 1.694065894508605493E-18, 0.8303914354399863917, 0.8501208883708250008 ) ) ;
#66 = CARTESIAN_POINT ( 'NONE',  ( 1.694065894508600678E-18, 1.372217083362482049, 1.239564321990653362 ) ) ;
#67 = CARTESIAN_POINT ( 'NONE',  ( -2.479128643981306279, 1.372217083362482049, 1.239564321990653362 ) ) ;
#68 = CARTESIAN_POINT ( 'NONE',  ( -2.442951364153564217E-17, 0.1084454863782670364, -0.1856490194793825044 ) ) ;
#69 = CARTESIAN_POINT ( 'NONE',  ( -5.222568343023228692E-17, 0.3168166732488152393, -0.4126219704400139188 ) ) ;
#70 = AXIS2_PLACEMENT_3D ( 'NONE', #314, #48, #44 ) ;
#71 = CARTESIAN_POINT ( 'NONE',  ( -5.557728813192941431, 4.024603962495519660, -2.778864406596470271 ) ) ;
#72 = ADVANCED_FACE ( 'NONE', ( #254 ), #360, .T. ) ;
#73 = ORIENTED_EDGE ( 'NONE', *, *, #437, .F. ) ;
#74 = PRODUCT_CONTEXT ( 'NONE', #84, 'mechanical' ) ;
#75 = ORIENTED_EDGE ( 'NONE', *, *, #91, .F. ) ;
#76 = CARTESIAN_POINT ( 'NONE',  ( 4.716496138856268367E-17, 0.1084454863782670364, 0.1856490194793825044 ) ) ;
#77 = CARTESIAN_POINT ( 'NONE',  ( -0.3712980389587648977, 0.1084454863782670225, -0.1856490194793824489 ) ) ;
#78 = CIRCLE ( 'NONE', #61, 22.03669608011332315 ) ;
#79 = DIRECTION ( 'NONE',  ( 0.000000000000000000, 0.000000000000000000, -1.000000000000000000 ) ) ;
#80 = FACE_OUTER_BOUND ( 'NONE', #167, .T. ) ;
#81 = ORIENTED_EDGE ( 'NONE', *, *, #321, .F. ) ;
#82 =( NAMED_UNIT ( * ) PLANE_ANGLE_UNIT ( ) SI_UNIT ( $, .RADIAN. ) );
#83 = ORIENTED_EDGE ( 'NONE', *, *, #117, .T. ) ;
#84 = APPLICATION_CONTEXT ( 'automotive_design' ) ;
#85 = CARTESIAN_POINT ( 'NONE',  ( 42.84433308951108899, 66.12882914055825267, 21.42216654475553383 ) ) ;
#86 = CARTESIAN_POINT ( 'NONE',  ( 3.052997617471311638E-16, 1.372217083362482049, 1.239564321990653362 ) ) ;
#87 = ADVANCED_FACE ( 'NONE', ( #372 ), #340, .F. ) ;
#88 = CARTESIAN_POINT ( 'NONE',  ( 33.80351500840119172, 46.93108032830016185, -16.90175750420060297 ) ) ;
#89 = DIRECTION ( 'NONE',  ( -0.000000000000000000, 1.000000000000000000, -0.000000000000000000 ) ) ;
#90 = COLOUR_RGB ( '',0.7921568627450980005, 0.8196078431372548767, 0.9333333333333333481 ) ;
#91 = EDGE_CURVE ( 'NONE', #307, #335, #20, .T. ) ;
#92 = CARTESIAN_POINT ( 'NONE',  ( 2.479128643981306723, 1.372217083362482049, 1.239564321990652696 ) ) ;
#93 = DIRECTION ( 'NONE',  ( -0.000000000000000000, 1.000000000000000000, -0.000000000000000000 ) ) ;
#94 = CARTESIAN_POINT ( 'NONE',  ( 1.694065894508600678E-18, 0.05683009390154280388, 0.1156353084216678595 ) ) ;
#95 = CARTESIAN_POINT ( 'NONE',  ( 0.000000000000000000, 48.89233859750462585, 0.000000000000000000 ) ) ;
#96 = CARTESIAN_POINT ( 'NONE',  ( -3.420068059747963507E-16, 4.024603962495519660, -2.778864406596471159 ) ) ;
#97 = CARTESIAN_POINT ( 'NONE',  ( -18.64241968219679535, 20.50959668899019306, 9.321209841098399451 ) ) ;
#98 = ORIENTED_EDGE ( 'NONE', *, *, #117, .F. ) ;
#99 = CARTESIAN_POINT ( 'NONE',  ( 1.694065894508600678E-18, 0.02291031148714136115, 0.05897660774759384134 ) ) ;
#100 = CARTESIAN_POINT ( 'NONE',  ( 1.694065894508604145E-18, 0.5085918143657099932, 0.5883997396959864679 ) ) ;
#101 = CARTESIAN_POINT ( 'NONE',  ( -2.782617926945904419E-18, 0.001839143305495788069, -0.008888701895070450637 ) ) ;
#102 = CARTESIAN_POINT ( 'NONE',  ( -12.53335736762111274, 11.98754700205346957, -6.266678683810556372 ) ) ;
#103 = VECTOR ( 'NONE', #374, 999.9999999999998863 ) ;
#104 = CARTESIAN_POINT ( 'NONE',  ( -2.071562388642910796E-15, 46.93108032830016185, -16.90175750420060297 ) ) ;
#105 = DIRECTION ( 'NONE',  ( -0.000000000000000000, 1.000000000000000000, -0.000000000000000000 ) ) ;
#106 = VERTEX_POINT ( 'NONE', #306 ) ;
#107 = CARTESIAN_POINT ( 'NONE',  ( -8.916617284774579182E-18, 0.02291031148714136115, -0.05897660774759384134 ) ) ;
#108 = CARTESIAN_POINT ( 'NONE',  ( -0.3712980389587648977, 0.1084454863782670225, 0.1856490194793825044 ) ) ;
#109 = DIRECTION ( 'NONE',  ( -0.000000000000000000, 1.000000000000000000, -0.000000000000000000 ) ) ;
#110 = ORIENTED_EDGE ( 'NONE', *, *, #111, .F. ) ;
#111 = EDGE_CURVE ( 'NONE', #385, #250, #151, .T. ) ;
#112 = MANIFOLD_SOLID_BREP ( 'M10 Clearance Hole1', #262 ) ;
#113 = UNCERTAINTY_MEASURE_WITH_UNIT (LENGTH_MEASURE( 1.000000000000000082E-05 ), #291, 'distance_accuracy_value', 'NONE');
#114 = CARTESIAN_POINT ( 'NONE',  ( 1.613916867504055769E-17, 0.02291031148714136115, 0.05897660774759384134 ) ) ;
#115 = EDGE_LOOP ( 'NONE', ( #6, #218, #202 ) ) ;
#116 = CARTESIAN_POINT ( 'NONE',  ( -8.916617284774579182E-18, 0.02291031148714136115, -0.05897660774759384134 ) ) ;
#117 = EDGE_CURVE ( 'NONE', #164, #250, #253, .T. ) ;
#118 = CARTESIAN_POINT ( 'NONE',  ( -2.625152834878148158E-15, 66.12882914055825267, -21.42216654475554449 ) ) ;
#119 = AXIS2_PLACEMENT_3D ( 'NONE', #245, #249, #378 ) ;
#120 = B_SPLINE_CURVE_WITH_KNOTS ( 'NONE', 4,
 ( #138, #101, #246, #24, #129, #68, #203, #413, #214, #408, #38, #175, #96, #312, #241, #338, #21, #161, #438, #127, #271 ),
 .UNSPECIFIED., .F., .F.,
 ( 5, 1, 1, 1, 1, 1, 1, 1, 1, 1, 1, 1, 1, 1, 1, 1, 1, 5 ),
 ( 0.000000000000000000, 0.0001145544574394275112, 0.0002291089148788550225, 0.0004582178297577100450, 0.0008356273135694523325, 0.001213036797381194729, 0.001843101546187343167, 0.002742750432452018168, 0.004125600431661326575, 0.006458657274379612373, 0.01028141745121161944, 0.01700547481764008370, 0.02866140081497297459, 0.04776443037332009367, 0.07896298847159936851, 0.1315160094079196873, 0.1941941538041540849, 0.2300160315052604543 ),
 .UNSPECIFIED. ) ;
#121 = CARTESIAN_POINT ( 'NONE',  ( 3.684170974535035281, 2.325596474790781354, -1.842085487267518751 ) ) ;
#122 = CARTESIAN_POINT ( 'NONE',  ( 42.84433308951108188, 66.12882914055825267, -21.42216654475555160 ) ) ;
#123 = LINE ( 'NONE', #29, #103 ) ;
#124 = MECHANICAL_DESIGN_GEOMETRIC_PRESENTATION_REPRESENTATION (  '', ( #298 ), #373 ) ;
#125 = CARTESIAN_POINT ( 'NONE',  ( 18.64241968219679535, 20.50959668899019306, -9.321209841098401228 ) ) ;
#126 = ORIENTED_EDGE ( 'NONE', *, *, #380, .F. ) ;
#127 = CARTESIAN_POINT ( 'NONE',  ( -2.625152834878141058E-15, 66.12882914055801109, -21.42216654475549120 ) ) ;
#128 = CARTESIAN_POINT ( 'NONE',  ( -42.84433308951108188, 66.12882914055825267, 21.42216654475554449 ) ) ;
#129 = CARTESIAN_POINT ( 'NONE',  ( -1.585530692720985095E-17, 0.05683009390154280388, -0.1156353084216678595 ) ) ;
#130 = ADVANCED_FACE ( 'NONE', ( #7 ), #182, .F. ) ;
#131 = CARTESIAN_POINT ( 'NONE',  ( -1.058038483776721217E-16, 0.8303914354399863917, -0.8501208883708250008 ) ) ;
#132 = VERTEX_POINT ( 'NONE', #148 ) ;
#133 = CARTESIAN_POINT ( 'NONE',  ( 0.000000000000000000, 68.89233859750463296, 5.525000000000000355 ) ) ;
#134 = CARTESIAN_POINT ( 'NONE',  ( -2.414055578104956555E-15, 58.53750916376351654, -19.69842663117258041 ) ) ;
#135 = CARTESIAN_POINT ( 'NONE',  ( 0.000000000000000000, 68.86733859750462727, 0.000000000000000000 ) ) ;
#136 = DIRECTION ( 'NONE',  ( 0.000000000000000000, 0.000000000000000000, 1.000000000000000000 ) ) ;
#137 = CARTESIAN_POINT ( 'NONE',  ( 1.694065894508728945E-18, 68.89233859788996028, 22.03669607838060784 ) ) ;
#138 = CARTESIAN_POINT ( 'NONE',  ( 0.000000000000000000, 0.000000000000000000, 0.000000000000000000 ) ) ;
#139 = CARTESIAN_POINT ( 'NONE',  ( -1.615099194278382685E-15, 33.01549136552644370, -13.17445266265497494 ) ) ;
#140 = ORIENTED_EDGE ( 'NONE', *, *, #437, .T. ) ;
#141 = CARTESIAN_POINT ( 'NONE',  ( -0.5658359348238350961, 0.1910420470109902569, 0.2829179674119176591 ) ) ;
#142 = CARTESIAN_POINT ( 'NONE',  ( 6.735557395310440051E-16, 68.86733859750462727, -5.499999999999997335 ) ) ;
#143 = CARTESIAN_POINT ( 'NONE',  ( 0.3712980389587648977, 0.1084454863782670225, -0.1856490194793825876 ) ) ;
#144 =( GEOMETRIC_REPRESENTATION_CONTEXT ( 3 ) GLOBAL_UNCERTAINTY_ASSIGNED_CONTEXT ( ( #193 ) ) GLOBAL_UNIT_ASSIGNED_CONTEXT ( ( #223, #147, #251 ) ) REPRESENTATION_CONTEXT ( 'NONE', 'WORKASPACE' ) );
#145 = CARTESIAN_POINT ( 'NONE',  ( -0.5658359348238350961, 0.1910420470109902569, -0.2829179674119175480 ) ) ;
#146 = EDGE_CURVE ( 'NONE', #279, #106, #150, .T. ) ;
#147 =( NAMED_UNIT ( * ) PLANE_ANGLE_UNIT ( ) SI_UNIT ( $, .RADIAN. ) );
#148 = CARTESIAN_POINT ( 'NONE',  ( -2.700410997724022545E-15, 68.89233859750464717, -22.03669608011332315 ) ) ;
#149 = ORIENTED_EDGE ( 'NONE', *, *, #9, .F. ) ;
#150 = LINE ( 'NONE', #392, #383 ) ;
#151 = CIRCLE ( 'NONE', #283, 5.499999999999997335 ) ;
#152 = AXIS2_PLACEMENT_3D ( 'NONE', #227, #3, #426 ) ;
#153 = CARTESIAN_POINT ( 'NONE',  ( -1.694065894508390752E-18, 2.741493898304631015E-14, 1.713433686440394384E-15 ) ) ;
#154 = ADVANCED_FACE ( 'NONE', ( #80 ), #37, .T. ) ;
#155 = DIRECTION ( 'NONE',  ( 0.000000000000000000, 0.000000000000000000, 1.000000000000000000 ) ) ;
#156 = CARTESIAN_POINT ( 'NONE',  ( 8.375653759258151254, 6.971087135205732643, -4.187826879629077403 ) ) ;
#157 = CARTESIAN_POINT ( 'NONE',  ( -2.782617926945904419E-18, 0.001839143305495788069, -0.008888701895070450637 ) ) ;
#158 = CARTESIAN_POINT ( 'NONE',  ( 18.64241968219679890, 20.50959668899019306, 9.321209841098394122 ) ) ;
#159 = CARTESIAN_POINT ( 'NONE',  ( 6.766173565289127388E-16, 68.89233859750463296, -5.525000000000000355 ) ) ;
#160 = CARTESIAN_POINT ( 'NONE',  ( 44.07339215676121569, 68.89233859788996028, 22.03669607838059719 ) ) ;
#161 = CARTESIAN_POINT ( 'NONE',  ( -2.071562388642908035E-15, 46.93108032830008369, -16.90175750420058165 ) ) ;
#162 = CARTESIAN_POINT ( 'NONE',  ( 1.694065894508715078E-18, 58.53750916376351654, 19.69842663117258041 ) ) ;
#163 = ORIENTED_EDGE ( 'NONE', *, *, #321, .T. ) ;
#164 = VERTEX_POINT ( 'NONE', #197 ) ;
#165 = CARTESIAN_POINT ( 'NONE',  ( 6.766173565289127388E-16, 68.89233859750463296, -5.525000000000000355 ) ) ;
#166 = CARTESIAN_POINT ( 'NONE',  ( -33.80351500840119172, 46.93108032830016185, -16.90175750420059586 ) ) ;
#167 = EDGE_LOOP ( 'NONE', ( #81, #417, #28 ) ) ;
#168 = LINE ( 'NONE', #371, #361 ) ;
#169 = DIRECTION ( 'NONE',  ( 0.000000000000000000, 0.000000000000000000, 1.000000000000000000 ) ) ;
#170 = CARTESIAN_POINT ( 'NONE',  ( 0.000000000000000000, 48.89233859750462585, 5.499999999999994671 ) ) ;
#171 = CONICAL_SURFACE ( 'NONE', #2, 5.499999999999994671, 1.029744258676653867 ) ;
#172 = CARTESIAN_POINT ( 'NONE',  ( -33.80351500840119172, 46.93108032830016185, 16.90175750420059941 ) ) ;
#173 = DIRECTION ( 'NONE',  ( 0.000000000000000000, -1.000000000000000000, -0.000000000000000000 ) ) ;
#174 = ADVANCED_FACE ( 'NONE', ( #328 ), #403, .F. ) ;
#175 = CARTESIAN_POINT ( 'NONE',  ( -2.272844754683044663E-16, 2.325596474790780910, -1.842085487267518529 ) ) ;
#176 = CARTESIAN_POINT ( 'NONE',  ( -5.145549442466082989E-16, 6.971087135205732643, -4.187826879629076515 ) ) ;
#177 = ORIENTED_EDGE ( 'NONE', *, *, #237, .F. ) ;
#178 =( NAMED_UNIT ( * ) SI_UNIT ( $, .STERADIAN. ) SOLID_ANGLE_UNIT ( ) );
#179 = ORIENTED_EDGE ( 'NONE', *, *, #196, .F. ) ;
#180 = PRODUCT_DEFINITION ( 'UNKNOWN', '', #334, #324 ) ;
#181 = DIRECTION ( 'NONE',  ( -0.000000000000000000, 1.000000000000000000, -0.000000000000000000 ) ) ;
#182 = CONICAL_SURFACE ( 'NONE', #70, 5.525000000000000355, 0.7853981633975697374 ) ;
#183 = CARTESIAN_POINT ( 'NONE',  ( 1.694065894508180825E-18, 2.741493898304631015E-14, -1.713433686440394384E-15 ) ) ;
#184 = CARTESIAN_POINT ( 'NONE',  ( -3.634152421573661819E-17, 0.1910420470109902291, -0.2829179674119176591 ) ) ;
#185 = CARTESIAN_POINT ( 'NONE',  ( 0.01777740379014090127, 0.001839143305495788069, 0.008888701895070440229 ) ) ;
#186 = SURFACE_SIDE_STYLE ('',( #323 ) ) ;
#187 = DIRECTION ( 'NONE',  ( -0.000000000000000000, -1.000000000000000000, -0.000000000000000000 ) ) ;
#188 = CARTESIAN_POINT ( 'NONE',  ( 3.001654795991110122E-17, 0.05683009390154280388, 0.1156353084216678595 ) ) ;
#189 = AXIS2_PLACEMENT_3D ( 'NONE', #13, #89, #155 ) ;
#190 = CARTESIAN_POINT ( 'NONE',  ( -4.901292274133570634E-18, 0.007057294233763714529, -0.02618899083276881451 ) ) ;
#191 = AXIS2_PLACEMENT_3D ( 'NONE', #36, #173, #447 ) ;
#192 = ORIENTED_EDGE ( 'NONE', *, *, #237, .T. ) ;
#193 = UNCERTAINTY_MEASURE_WITH_UNIT (LENGTH_MEASURE( 1.000000000000000082E-05 ), #223, 'distance_accuracy_value', 'NONE');
#194 = CARTESIAN_POINT ( 'NONE',  ( 44.07339215676120858, 68.89233859788996028, -22.03669607838061495 ) ) ;
#195 = CARTESIAN_POINT ( 'NONE',  ( 2.099136308608356427E-16, 0.8303914354399863917, 0.8501208883708250008 ) ) ;
#196 = EDGE_CURVE ( 'NONE', #385, #335, #18, .T. ) ;
#197 = CARTESIAN_POINT ( 'NONE',  ( 0.000000000000000000, 48.89233859750462585, 5.499999999999994671 ) ) ;
#198 = AXIS2_PLACEMENT_3D ( 'NONE', #135, #105, #382 ) ;
#199 = CARTESIAN_POINT ( 'NONE',  ( -3.420068059747963507E-16, 4.024603962495519660, -2.778864406596471159 ) ) ;
#200 = CARTESIAN_POINT ( 'NONE',  ( 1.694065894508600678E-18, 0.001839143305495788069, 0.008888701895070450637 ) ) ;
#201 = CARTESIAN_POINT ( 'NONE',  ( -2.272844754683044663E-16, 2.325596474790780910, -1.842085487267518529 ) ) ;
#202 = ORIENTED_EDGE ( 'NONE', *, *, #15, .T. ) ;
#203 = CARTESIAN_POINT ( 'NONE',  ( -3.634152421573661819E-17, 0.1910420470109902291, -0.2829179674119176591 ) ) ;
#204 = EDGE_CURVE ( 'NONE', #250, #307, #123, .T. ) ;
#205 = CARTESIAN_POINT ( 'NONE',  ( 1.694065894641808008E-18, 68.89233859750464717, 22.03669608011332315 ) ) ;
#206 = DIRECTION ( 'NONE',  ( -0.000000000000000000, 1.000000000000000000, -0.000000000000000000 ) ) ;
#207 = CARTESIAN_POINT ( 'NONE',  ( 0.000000000000000000, 68.86733859750462727, 5.499999999999997335 ) ) ;
#208 = CARTESIAN_POINT ( 'NONE',  ( -5.557728813192941431, 4.024603962495519660, 2.778864406596471159 ) ) ;
#209 = CARTESIAN_POINT ( 'NONE',  ( 1.694065894508600678E-18, 20.50959668899019306, 9.321209841098399451 ) ) ;
#210 = CARTESIAN_POINT ( 'NONE',  ( 1.694065894508601834E-18, 0.1084454863782670364, 0.1856490194793825044 ) ) ;
#211 = CARTESIAN_POINT ( 'NONE',  ( 1.694065894508611271E-18, 2.325596474790780910, 1.842085487267518529 ) ) ;
#212 = ORIENTED_EDGE ( 'NONE', *, *, #351, .F. ) ;
#213 = PRESENTATION_LAYER_ASSIGNMENT (  '', '', ( #298 ) ) ;
#214 = CARTESIAN_POINT ( 'NONE',  ( -7.375225167829116486E-17, 0.5085918143657099932, -0.5883997396959864679 ) ) ;
#215 = CARTESIAN_POINT ( 'NONE',  ( 1.694065894508607804E-18, 1.372217083362482049, 1.239564321990653362 ) ) ;
#216 = ORIENTED_EDGE ( 'NONE', *, *, #354, .T. ) ;
#217 = CARTESIAN_POINT ( 'NONE',  ( -3.425173306986280168E-15, 2.741493898304631015E-14, -1.716821818229410797E-15 ) ) ;
#218 = ORIENTED_EDGE ( 'NONE', *, *, #269, .T. ) ;
#219 = CARTESIAN_POINT ( 'NONE',  ( 0.000000000000000000, 68.89233859750464717, 0.000000000000000000 ) ) ;
#220 = DIRECTION ( 'NONE',  ( -0.000000000000000000, 1.000000000000000000, -0.000000000000000000 ) ) ;
#221 = CARTESIAN_POINT ( 'NONE',  ( 0.000000000000000000, 68.89233859750463296, 0.000000000000000000 ) ) ;
#222 = CARTESIAN_POINT ( 'NONE',  ( -5.222568343023228692E-17, 0.3168166732488152393, -0.4126219704400139188 ) ) ;
#223 =( LENGTH_UNIT ( ) NAMED_UNIT ( * ) SI_UNIT ( .MILLI., .METRE. ) );
#224 = CARTESIAN_POINT ( 'NONE',  ( -2.782617926945904419E-18, 0.001839143305495788069, -0.008888701895070450637 ) ) ;
#225 = CARTESIAN_POINT ( 'NONE',  ( 1.694065894508600678E-18, 2.741493898304631015E-14, -1.713433686440394384E-15 ) ) ;
#226 = EDGE_LOOP ( 'NONE', ( #179, #149, #310, #412 ) ) ;
#227 = CARTESIAN_POINT ( 'NONE',  ( 0.000000000000000000, 0.000000000000000000, 0.000000000000000000 ) ) ;
#228 = SURFACE_STYLE_USAGE ( .BOTH. , #186 ) ;
#229 = CARTESIAN_POINT ( 'NONE',  ( 0.8252439408800277265, 0.3168166732488152393, 0.4126219704400136967 ) ) ;
#230 = CARTESIAN_POINT ( 'NONE',  ( 1.176799479391972936, 0.5085918143657101043, -0.5883997396959865789 ) ) ;
#231 = CARTESIAN_POINT ( 'NONE',  ( -1.534969138208198823E-16, 1.372217083362482049, -1.239564321990653362 ) ) ;
#232 = CARTESIAN_POINT ( 'NONE',  ( -5.145549442466082989E-16, 6.971087135205732643, -4.187826879629076515 ) ) ;
#233 = CARTESIAN_POINT ( 'NONE',  ( -1.694065894508390752E-18, 2.741493898304631015E-14, 1.713433686440394384E-15 ) ) ;
#234 = CARTESIAN_POINT ( 'NONE',  ( 5.557728813192942319, 4.024603962495519660, 2.778864406596469827 ) ) ;
#235 = CARTESIAN_POINT ( 'NONE',  ( -0.01777740379014089087, 0.001839143305495788069, 0.008888701895070454106 ) ) ;
#236 = CARTESIAN_POINT ( 'NONE',  ( 1.694065894508600678E-18, 0.8303914354399863917, 0.8501208883708250008 ) ) ;
#237 = EDGE_CURVE ( 'NONE', #106, #385, #168, .T. ) ;
#238 = PRODUCT ( 'Nosecone metal tip', 'Nosecone metal tip', '', ( #74 ) ) ;
#239 = CARTESIAN_POINT ( 'NONE',  ( 1.694065894508600678E-18, 4.024603962495519660, 2.778864406596471159 ) ) ;
#240 = CARTESIAN_POINT ( 'NONE',  ( 1.694065894508625137E-18, 6.971087135205732643, 4.187826879629076515 ) ) ;
#241 = CARTESIAN_POINT ( 'NONE',  ( -7.691408650358633449E-16, 11.98754700205346957, -6.266678683810557260 ) ) ;
#242 = CARTESIAN_POINT ( 'NONE',  ( -2.700410997511693139E-15, 68.89233859788996028, -22.03669607838060784 ) ) ;
#243 = DIRECTION ( 'NONE',  ( 0.000000000000000000, 0.5150380749100547106, 0.8571673007021120005 ) ) ;
#244 = CARTESIAN_POINT ( 'NONE',  ( -2.272844754683044663E-16, 2.325596474790780910, -1.842085487267518529 ) ) ;
#245 = CARTESIAN_POINT ( 'NONE',  ( 0.000000000000000000, 48.89233859750462585, 0.000000000000000000 ) ) ;
#246 = CARTESIAN_POINT ( 'NONE',  ( -4.901292274133570634E-18, 0.007057294233763714529, -0.02618899083276881451 ) ) ;
#247 = CARTESIAN_POINT ( 'NONE',  ( -26.34890532530994633, 33.01549136552644370, -13.17445266265497317 ) ) ;
#248 = CARTESIAN_POINT ( 'NONE',  ( -7.375225167829116486E-17, 0.5085918143657099932, -0.5883997396959864679 ) ) ;
#249 = DIRECTION ( 'NONE',  ( -0.000000000000000000, 1.000000000000000000, -0.000000000000000000 ) ) ;
#250 = VERTEX_POINT ( 'NONE', #207 ) ;
#251 =( NAMED_UNIT ( * ) SI_UNIT ( $, .STERADIAN. ) SOLID_ANGLE_UNIT ( ) );
#252 = CARTESIAN_POINT ( 'NONE',  ( 0.5658359348238353181, 0.1910420470109902569, 0.2829179674119175480 ) ) ;
#253 = LINE ( 'NONE', #322, #53 ) ;
#254 = FACE_OUTER_BOUND ( 'NONE', #47, .T. ) ;
#255 = ADVANCED_FACE ( 'NONE', ( #57 ), #64, .F. ) ;
#256 = SHAPE_DEFINITION_REPRESENTATION ( #55, #266 ) ;
#257 = CARTESIAN_POINT ( 'NONE',  ( 0.2312706168433356912, 0.05683009390154280388, 0.1156353084216678040 ) ) ;
#258 = APPLICATION_CONTEXT ( 'automotive_design' ) ;
#259 = CARTESIAN_POINT ( 'NONE',  ( -0.05237798166553762208, 0.007057294233763715396, -0.02618899083276880063 ) ) ;
#260 = CARTESIAN_POINT ( 'NONE',  ( -0.1179532154951876827, 0.02291031148714136115, -0.05897660774759382052 ) ) ;
#261 = CARTESIAN_POINT ( 'NONE',  ( 5.248611603861787716E-15, 66.12882914055825267, 21.42216654475554449 ) ) ;
#262 = CLOSED_SHELL ( 'NONE', ( #154, #130, #255, #87, #72, #51, #330, #174, #432 ) ) ;
#263 = AXIS2_PLACEMENT_3D ( 'NONE', #305, #344, #442 ) ;
#264 = VERTEX_POINT ( 'NONE', #302 ) ;
#265 = CARTESIAN_POINT ( 'NONE',  ( 6.823195460550841008E-16, 4.024603962495519660, 2.778864406596471159 ) ) ;
#266 = ADVANCED_BREP_SHAPE_REPRESENTATION ( 'Nosecone metal tip', ( #112, #152 ), #144 ) ;
#267 = CARTESIAN_POINT ( 'NONE',  ( -1.615099194278382685E-15, 33.01549136552644370, -13.17445266265497494 ) ) ;
#268 = CARTESIAN_POINT ( 'NONE',  ( 4.826417090315403721E-15, 58.53750916376351654, 19.69842663117258041 ) ) ;
#269 = EDGE_CURVE ( 'NONE', #279, #164, #445, .T. ) ;
#270 = CARTESIAN_POINT ( 'NONE',  ( -2.414055578104955766E-15, 58.53750916376351654, -19.69842663117258041 ) ) ;
#271 = CARTESIAN_POINT ( 'NONE',  ( -2.700410997724022545E-15, 68.89233859750464717, -22.03669608011332315 ) ) ;
#272 = CARTESIAN_POINT ( 'NONE',  ( -42.84433308951108188, 66.12882914055825267, -21.42216654475553739 ) ) ;
#273 = FACE_OUTER_BOUND ( 'NONE', #115, .T. ) ;
#274 = CARTESIAN_POINT ( 'NONE',  ( -8.375653759258151254, 6.971087135205732643, -4.187826879629075627 ) ) ;
#275 = CARTESIAN_POINT ( 'NONE',  ( 1.694065894508600678E-18, 0.007057294233763714529, 0.02618899083276881451 ) ) ;
#276 = CARTESIAN_POINT ( 'NONE',  ( -2.625152834878148158E-15, 66.12882914055825267, -21.42216654475554449 ) ) ;
#277 = CARTESIAN_POINT ( 'NONE',  ( 1.694065894508600678E-18, 33.01549136552644370, 13.17445266265497494 ) ) ;
#278 = CARTESIAN_POINT ( 'NONE',  ( 1.694065894508602989E-18, 0.3168166732488152393, 0.4126219704400139188 ) ) ;
#279 = VERTEX_POINT ( 'NONE', #299 ) ;
#280 = FACE_OUTER_BOUND ( 'NONE', #226, .T. ) ;
#281 = CARTESIAN_POINT ( 'NONE',  ( -7.691408650358633449E-16, 11.98754700205346957, -6.266678683810557260 ) ) ;
#282 = FACE_OUTER_BOUND ( 'NONE', #388, .T. ) ;
#283 = AXIS2_PLACEMENT_3D ( 'NONE', #428, #109, #41 ) ;
#284 = CARTESIAN_POINT ( 'NONE',  ( 0.3712980389587650087, 0.1084454863782670225, 0.1856490194793824211 ) ) ;
#285 = CARTESIAN_POINT ( 'NONE',  ( 0.5658359348238350961, 0.1910420470109902569, -0.2829179674119177146 ) ) ;
#286 = APPLICATION_PROTOCOL_DEFINITION ( 'draft international standard', 'automotive_design', 1998, #258 ) ;
#287 = FILL_AREA_STYLE_COLOUR ( '', #90 ) ;
#288 = CARTESIAN_POINT ( 'NONE',  ( 0.000000000000000000, 68.89233859750464717, 0.000000000000000000 ) ) ;
#289 = CIRCLE ( 'NONE', #198, 5.499999999999997335 ) ;
#290 = CARTESIAN_POINT ( 'NONE',  ( 3.871169959383208161E-18, 0.001839143305495788069, 0.008888701895070450637 ) ) ;
#291 =( LENGTH_UNIT ( ) NAMED_UNIT ( * ) SI_UNIT ( .MILLI., .METRE. ) );
#292 = CARTESIAN_POINT ( 'NONE',  ( 4.141430711391312991E-15, 46.93108032830016185, 16.90175750420060297 ) ) ;
#293 = CARTESIAN_POINT ( 'NONE',  ( 1.536587664177218089E-15, 11.98754700205346957, 6.266678683810557260 ) ) ;
#294 = CIRCLE ( 'NONE', #119, 5.499999999999994671 ) ;
#295 = CARTESIAN_POINT ( 'NONE',  ( 33.80351500840119883, 46.93108032830016185, 16.90175750420059231 ) ) ;
#296 = CARTESIAN_POINT ( 'NONE',  ( 5.557728813192941431, 4.024603962495519660, -2.778864406596472048 ) ) ;
#297 = CARTESIAN_POINT ( 'NONE',  ( 1.458104374620737291E-16, 0.5085918143657099932, 0.5883997396959864679 ) ) ;
#298 = STYLED_ITEM ( 'NONE', ( #424 ), #112 ) ;
#299 = CARTESIAN_POINT ( 'NONE',  ( -5.642031627787985505E-15, 45.58760519285304014, 0.000000000000000000 ) ) ;
#300 = CARTESIAN_POINT ( 'NONE',  ( 1.694065894508600678E-18, 0.007057294233763714529, 0.02618899083276881451 ) ) ;
#301 = CARTESIAN_POINT ( 'NONE',  ( -39.39685326234515372, 58.53750916376352365, -19.69842663117257686 ) ) ;
#302 = CARTESIAN_POINT ( 'NONE',  ( 1.694065894641808008E-18, 68.89233859750464717, 22.03669608011332315 ) ) ;
#303 = CARTESIAN_POINT ( 'NONE',  ( 1.694065894508725093E-18, 66.12882914055825267, 21.42216654475554449 ) ) ;
#304 = DIRECTION ( 'NONE',  ( 0.000000000000000000, 0.000000000000000000, 1.000000000000000000 ) ) ;
#305 = CARTESIAN_POINT ( 'NONE',  ( 0.000000000000000000, 68.89233859750463296, 0.000000000000000000 ) ) ;
#306 = CARTESIAN_POINT ( 'NONE',  ( 6.735557395310435121E-16, 48.89233859750462585, -5.499999999999994671 ) ) ;
#307 = VERTEX_POINT ( 'NONE', #133 ) ;
#308 = CARTESIAN_POINT ( 'NONE',  ( 1.694065894508600678E-18, 0.3168166732488152393, 0.4126219704400139188 ) ) ;
#309 = CARTESIAN_POINT ( 'NONE',  ( -39.39685326234515372, 58.53750916376352365, 19.69842663117258041 ) ) ;
#310 = ORIENTED_EDGE ( 'NONE', *, *, #204, .T. ) ;
#311 = ORIENTED_EDGE ( 'NONE', *, *, #30, .F. ) ;
#312 = CARTESIAN_POINT ( 'NONE',  ( -5.145549442466082989E-16, 6.971087135205732643, -4.187826879629076515 ) ) ;
#313 = CARTESIAN_POINT ( 'NONE',  ( -1.176799479391972936, 0.5085918143657101043, 0.5883997396959864679 ) ) ;
#314 = CARTESIAN_POINT ( 'NONE',  ( 0.000000000000000000, 68.89233859750463296, 0.000000000000000000 ) ) ;
#315 = CARTESIAN_POINT ( 'NONE',  ( 0.000000000000000000, 0.000000000000000000, 0.000000000000000000 ) ) ;
#316 = EDGE_LOOP ( 'NONE', ( #311, #192, #444, #98 ) ) ;
#317 = AXIS2_PLACEMENT_3D ( 'NONE', #95, #206, #377 ) ;
#318 = AXIS2_PLACEMENT_3D ( 'NONE', #288, #187, #11 ) ;
#319 = DIRECTION ( 'NONE',  ( -0.000000000000000000, 1.000000000000000000, -0.000000000000000000 ) ) ;
#320 = CARTESIAN_POINT ( 'NONE',  ( 8.108518653758540590E-18, 0.007057294233763714529, 0.02618899083276881451 ) ) ;
#321 = EDGE_CURVE ( 'NONE', #23, #264, #26, .T. ) ;
#322 = CARTESIAN_POINT ( 'NONE',  ( 0.000000000000000000, 68.89233859750463296, 5.499999999999996447 ) ) ;
#323 = SURFACE_STYLE_FILL_AREA ( #395 ) ;
#324 = PRODUCT_DEFINITION_CONTEXT ( 'detailed design', #258, 'design' ) ;
#325 = CARTESIAN_POINT ( 'NONE',  ( 0.000000000000000000, 68.89233859750463296, 0.000000000000000000 ) ) ;
#326 = DIRECTION ( 'NONE',  ( 1.049727191138618326E-16, 0.5150380749100547106, -0.8571673007021120005 ) ) ;
#327 = ORIENTED_EDGE ( 'NONE', *, *, #204, .F. ) ;
#328 = FACE_OUTER_BOUND ( 'NONE', #396, .T. ) ;
#329 = CARTESIAN_POINT ( 'NONE',  ( -0.2312706168433356635, 0.05683009390154280388, 0.1156353084216678734 ) ) ;
#330 = ADVANCED_FACE ( 'NONE', ( #273 ), #171, .F. ) ;
#331 = CARTESIAN_POINT ( 'NONE',  ( -7.375225167829116486E-17, 0.5085918143657099932, -0.5883997396959864679 ) ) ;
#332 = CARTESIAN_POINT ( 'NONE',  ( 12.53335736762111452, 11.98754700205346957, 6.266678683810554595 ) ) ;
#333 = CIRCLE ( 'NONE', #415, 5.499999999999994671 ) ;
#334 = PRODUCT_DEFINITION_FORMATION_WITH_SPECIFIED_SOURCE ( 'ANY', '', #238, .NOT_KNOWN. ) ;
#335 = VERTEX_POINT ( 'NONE', #165 ) ;
#336 = CARTESIAN_POINT ( 'NONE',  ( 3.228504322662256769E-15, 33.01549136552644370, 13.17445266265497494 ) ) ;
#337 = CARTESIAN_POINT ( 'NONE',  ( 1.700241776741649558, 0.8303914354399861697, -0.8501208883708252229 ) ) ;
#338 = CARTESIAN_POINT ( 'NONE',  ( -1.143213045502704902E-15, 20.50959668899019306, -9.321209841098399451 ) ) ;
#339 = CARTESIAN_POINT ( 'NONE',  ( -12.53335736762111274, 11.98754700205346957, 6.266678683810557260 ) ) ;
#340 = CONICAL_SURFACE ( 'NONE', #317, 5.499999999999994671, 1.029744258676653867 ) ;
#341 = CARTESIAN_POINT ( 'NONE',  ( 0.000000000000000000, 48.89233859750462585, 0.000000000000000000 ) ) ;
#342 = CARTESIAN_POINT ( 'NONE',  ( 0.000000000000000000, 68.89233859750463296, 0.000000000000000000 ) ) ;
#343 = ORIENTED_EDGE ( 'NONE', *, *, #196, .T. ) ;
#344 = DIRECTION ( 'NONE',  ( -0.000000000000000000, 1.000000000000000000, -0.000000000000000000 ) ) ;
#345 = DIRECTION ( 'NONE',  ( -0.000000000000000000, 1.000000000000000000, -0.000000000000000000 ) ) ;
#346 = ORIENTED_EDGE ( 'NONE', *, *, #15, .F. ) ;
#347 = CARTESIAN_POINT ( 'NONE',  ( 1.694065894508600678E-18, 46.93108032830008369, 16.90175750420058165 ) ) ;
#348 = CARTESIAN_POINT ( 'NONE',  ( 1.694065894508637078E-18, 11.98754700205346957, 6.266678683810557260 ) ) ;
#349 = CARTESIAN_POINT ( 'NONE',  ( 1.694065894508600678E-18, 0.1084454863782670364, 0.1856490194793825044 ) ) ;
#350 = CARTESIAN_POINT ( 'NONE',  ( -1.176799479391972936, 0.5085918143657101043, -0.5883997396959864679 ) ) ;
#351 = EDGE_CURVE ( 'NONE', #23, #132, #120, .T. ) ;
#352 = CARTESIAN_POINT ( 'NONE',  ( 0.05237798166553762208, 0.007057294233763715396, 0.02618899083276879369 ) ) ;
#353 = VECTOR ( 'NONE', #243, 1000.000000000000000 ) ;
#354 = EDGE_CURVE ( 'NONE', #264, #132, #78, .T. ) ;
#355 = CIRCLE ( 'NONE', #425, 5.525000000000000355 ) ;
#356 = DIRECTION ( 'NONE',  ( -0.000000000000000000, -1.000000000000000000, -0.000000000000000000 ) ) ;
#357 = CARTESIAN_POINT ( 'NONE',  ( 0.8252439408800275045, 0.3168166732488152393, -0.4126219704400140298 ) ) ;
#358 = CARTESIAN_POINT ( 'NONE',  ( 0.1179532154951876410, 0.02291031148714136115, -0.05897660774759385521 ) ) ;
#359 = CARTESIAN_POINT ( 'NONE',  ( 0.2312706168433356635, 0.05683009390154280388, -0.1156353084216678873 ) ) ;
#360 =( BOUNDED_SURFACE ( )  B_SPLINE_SURFACE ( 4, 3, ( 
 ( #225, #33, #416, #233 ),
 ( #200, #235, #14, #157 ),
 ( #300, #404, #259, #190 ),
 ( #393, #389, #260, #116 ),
 ( #398, #329, #366, #430 ),
 ( #210, #108, #77, #402 ),
 ( #46, #141, #145, #184 ),
 ( #278, #439, #441, #69 ),
 ( #100, #313, #350, #248 ),
 ( #65, #422, #381, #131 ),
 ( #215, #67, #25, #386 ),
 ( #211, #39, #419, #244 ),
 ( #22, #208, #71, #414 ),
 ( #240, #31, #274, #176 ),
 ( #348, #339, #102, #281 ),
 ( #35, #97, #449, #62 ),
 ( #375, #446, #247, #139 ),
 ( #443, #172, #166, #104 ),
 ( #162, #309, #301, #134 ),
 ( #303, #128, #272, #276 ),
 ( #137, #421, #410, #242 ) ),
 .UNSPECIFIED., .F., .F., .T. ) 
 B_SPLINE_SURFACE_WITH_KNOTS ( ( 5, 1, 1, 1, 1, 1, 1, 1, 1, 1, 1, 1, 1, 1, 1, 1, 1, 5 ),
 ( 4, 4 ),
 ( 0.000000000000000000, 0.0001145544574394275112, 0.0002291089148788550225, 0.0004582178297577100450, 0.0008356273135694523325, 0.001213036797381194729, 0.001843101546187343167, 0.002742750432452018168, 0.004125600431661326575, 0.006458657274379612373, 0.01028141745121161944, 0.01700547481764008370, 0.02866140081497297459, 0.04776443037332009367, 0.07896298847159936851, 0.1315160094079196873, 0.1941941538041540849, 0.2300160315052615090 ),
 ( 0.000000000000000000, 1.000000000000000000 ),
 .UNSPECIFIED. ) 
 GEOMETRIC_REPRESENTATION_ITEM ( )  RATIONAL_B_SPLINE_SURFACE ( (
 ( 1.000000000000000000, 0.3333333333333334259, 0.3333333333333334259, 1.000000000000000000),
 ( 1.000000000000000000, 0.3333333333333334259, 0.3333333333333334259, 1.000000000000000000),
 ( 1.000000000000000000, 0.3333333333333334259, 0.3333333333333334259, 1.000000000000000000),
 ( 1.000000000000000000, 0.3333333333333334259, 0.3333333333333334259, 1.000000000000000000),
 ( 1.000000000000000000, 0.3333333333333334259, 0.3333333333333334259, 1.000000000000000000),
 ( 1.000000000000000000, 0.3333333333333334259, 0.3333333333333334259, 1.000000000000000000),
 ( 1.000000000000000000, 0.3333333333333334259, 0.3333333333333334259, 1.000000000000000000),
 ( 1.000000000000000000, 0.3333333333333334259, 0.3333333333333334259, 1.000000000000000000),
 ( 1.000000000000000000, 0.3333333333333334259, 0.3333333333333334259, 1.000000000000000000),
 ( 1.000000000000000000, 0.3333333333333334259, 0.3333333333333334259, 1.000000000000000000),
 ( 1.000000000000000000, 0.3333333333333334259, 0.3333333333333334259, 1.000000000000000000),
 ( 1.000000000000000000, 0.3333333333333334259, 0.3333333333333334259, 1.000000000000000000),
 ( 1.000000000000000000, 0.3333333333333334259, 0.3333333333333334259, 1.000000000000000000),
 ( 1.000000000000000000, 0.3333333333333334259, 0.3333333333333334259, 1.000000000000000000),
 ( 1.000000000000000000, 0.3333333333333334259, 0.3333333333333334259, 1.000000000000000000),
 ( 1.000000000000000000, 0.3333333333333334259, 0.3333333333333334259, 1.000000000000000000),
 ( 1.000000000000000000, 0.3333333333333334259, 0.3333333333333334259, 1.000000000000000000),
 ( 1.000000000000000000, 0.3333333333333334259, 0.3333333333333334259, 1.000000000000000000),
 ( 1.000000000000000000, 0.3333333333333334259, 0.3333333333333334259, 1.000000000000000000),
 ( 1.000000000000000000, 0.3333333333333334259, 0.3333333333333334259, 1.000000000000000000),
 ( 1.000000000000000000, 0.3333333333333334259, 0.3333333333333334259, 1.000000000000000000) ) ) 
 REPRESENTATION_ITEM ( '' )  SURFACE ( )  );
#361 = VECTOR ( 'NONE', #93, 1000.000000000000000 ) ;
#362 = CARTESIAN_POINT ( 'NONE',  ( 12.53335736762111274, 11.98754700205346957, -6.266678683810559924 ) ) ;
#363 = PRODUCT_RELATED_PRODUCT_CATEGORY ( 'part', '', ( #238 ) ) ;
#364 = CARTESIAN_POINT ( 'NONE',  ( 1.700241776741649780, 0.8303914354399861697, 0.8501208883708245567 ) ) ;
#365 = CARTESIAN_POINT ( 'NONE',  ( 39.39685326234515372, 58.53750916376352365, -19.69842663117258397 ) ) ;
#366 = CARTESIAN_POINT ( 'NONE',  ( -0.2312706168433356912, 0.05683009390154280388, -0.1156353084216678317 ) ) ;
#367 = CARTESIAN_POINT ( 'NONE',  ( -7.691408650358633449E-16, 11.98754700205346957, -6.266678683810557260 ) ) ;
#368 = CONICAL_SURFACE ( 'NONE', #407, 5.525000000000000355, 0.7853981633975697374 ) ;
#369 = CARTESIAN_POINT ( 'NONE',  ( -2.700410997511693139E-15, 68.89233859788996028, -22.03669607838060784 ) ) ;
#370 = CARTESIAN_POINT ( 'NONE',  ( 1.694065894508600678E-18, 6.971087135205732643, 4.187826879629076515 ) ) ;
#371 = CARTESIAN_POINT ( 'NONE',  ( 6.735557395310438079E-16, 68.89233859750463296, -5.499999999999996447 ) ) ;
#372 = FACE_OUTER_BOUND ( 'NONE', #399, .T. ) ;
#373 =( GEOMETRIC_REPRESENTATION_CONTEXT ( 3 ) GLOBAL_UNCERTAINTY_ASSIGNED_CONTEXT ( ( #113 ) ) GLOBAL_UNIT_ASSIGNED_CONTEXT ( ( #291, #82, #178 ) ) REPRESENTATION_CONTEXT ( 'NONE', 'WORKASPACE' ) );
#374 = DIRECTION ( 'NONE',  ( 0.000000000000000000, 0.7071067811864616415, 0.7071067811866335040 ) ) ;
#375 = CARTESIAN_POINT ( 'NONE',  ( 1.694065894508677330E-18, 33.01549136552644370, 13.17445266265497494 ) ) ;
#376 = CARTESIAN_POINT ( 'NONE',  ( 1.694065894508600678E-18, 0.5085918143657099932, 0.5883997396959864679 ) ) ;
#377 = DIRECTION ( 'NONE',  ( 0.000000000000000000, 0.000000000000000000, 1.000000000000000000 ) ) ;
#378 = DIRECTION ( 'NONE',  ( 0.000000000000000000, 0.000000000000000000, 1.000000000000000000 ) ) ;
#379 = CARTESIAN_POINT ( 'NONE',  ( 1.694065894508600678E-18, 66.12882914055801109, 21.42216654475549120 ) ) ;
#380 = EDGE_CURVE ( 'NONE', #132, #264, #10, .T. ) ;
#381 = CARTESIAN_POINT ( 'NONE',  ( -1.700241776741649558, 0.8303914354399861697, -0.8501208883708247788 ) ) ;
#382 = DIRECTION ( 'NONE',  ( 0.000000000000000000, 0.000000000000000000, 1.000000000000000000 ) ) ;
#383 = VECTOR ( 'NONE', #326, 1000.000000000000000 ) ;
#384 = VECTOR ( 'NONE', #434, 999.9999999999998863 ) ;
#385 = VERTEX_POINT ( 'NONE', #142 ) ;
#386 = CARTESIAN_POINT ( 'NONE',  ( -1.534969138208198823E-16, 1.372217083362482049, -1.239564321990653362 ) ) ;
#387 = PLANE ( 'NONE',  #191 ) ;
#388 = EDGE_LOOP ( 'NONE', ( #59, #126 ) ) ;
#389 = CARTESIAN_POINT ( 'NONE',  ( -0.1179532154951876688, 0.02291031148714136115, 0.05897660774759384134 ) ) ;
#390 = DIRECTION ( 'NONE',  ( 0.000000000000000000, 0.000000000000000000, 1.000000000000000000 ) ) ;
#391 = CARTESIAN_POINT ( 'NONE',  ( 7.098898253696463570E-17, 0.1910420470109902291, 0.2829179674119176591 ) ) ;
#392 = CARTESIAN_POINT ( 'NONE',  ( 6.735557395310435121E-16, 48.89233859750462585, -5.499999999999994671 ) ) ;
#393 = CARTESIAN_POINT ( 'NONE',  ( 1.694065894508601063E-18, 0.02291031148714136115, 0.05897660774759384134 ) ) ;
#394 = APPLICATION_PROTOCOL_DEFINITION ( 'draft international standard', 'automotive_design', 1998, #84 ) ;
#395 = FILL_AREA_STYLE ('',( #287 ) ) ;
#396 = EDGE_LOOP ( 'NONE', ( #177, #346, #83, #411 ) ) ;
#397 = CARTESIAN_POINT ( 'NONE',  ( 0.05237798166553760126, 0.007057294233763715396, -0.02618899083276882145 ) ) ;
#398 = CARTESIAN_POINT ( 'NONE',  ( 1.694065894508601449E-18, 0.05683009390154280388, 0.1156353084216678595 ) ) ;
#399 = EDGE_LOOP ( 'NONE', ( #32, #436, #8 ) ) ;
#400 = CARTESIAN_POINT ( 'NONE',  ( -1.058038483776721217E-16, 0.8303914354399863917, -0.8501208883708250008 ) ) ;
#401 = CARTESIAN_POINT ( 'NONE',  ( -2.071562388642910796E-15, 46.93108032830016185, -16.90175750420060297 ) ) ;
#402 = CARTESIAN_POINT ( 'NONE',  ( -2.442951364153564217E-17, 0.1084454863782670364, -0.1856490194793825044 ) ) ;
#403 = CYLINDRICAL_SURFACE ( 'NONE', #189, 5.499999999999996447 ) ;
#404 = CARTESIAN_POINT ( 'NONE',  ( -0.05237798166553760820, 0.007057294233763715396, 0.02618899083276881451 ) ) ;
#405 = CARTESIAN_POINT ( 'NONE',  ( 2.284732025110901204E-15, 20.50959668899019306, 9.321209841098399451 ) ) ;
#406 = AXIS2_PLACEMENT_3D ( 'NONE', #342, #345, #169 ) ;
#407 = AXIS2_PLACEMENT_3D ( 'NONE', #325, #319, #43 ) ;
#408 = CARTESIAN_POINT ( 'NONE',  ( -1.058038483776721217E-16, 0.8303914354399863917, -0.8501208883708250008 ) ) ;
#409 = DIRECTION ( 'NONE',  ( -0.000000000000000000, 1.000000000000000000, -0.000000000000000000 ) ) ;
#410 = CARTESIAN_POINT ( 'NONE',  ( -44.07339215676120858, 68.89233859788996028, -22.03669607838060074 ) ) ;
#411 = ORIENTED_EDGE ( 'NONE', *, *, #9, .T. ) ;
#412 = ORIENTED_EDGE ( 'NONE', *, *, #91, .T. ) ;
#413 = CARTESIAN_POINT ( 'NONE',  ( -5.222568343023228692E-17, 0.3168166732488152393, -0.4126219704400139188 ) ) ;
#414 = CARTESIAN_POINT ( 'NONE',  ( -3.420068059747963507E-16, 4.024603962495519660, -2.778864406596471159 ) ) ;
#415 = AXIS2_PLACEMENT_3D ( 'NONE', #42, #40, #304 ) ;
#416 = CARTESIAN_POINT ( 'NONE',  ( 3.425173306986280168E-15, 2.741493898304631015E-14, 1.716821818229411191E-15 ) ) ;
#417 = ORIENTED_EDGE ( 'NONE', *, *, #351, .T. ) ;
#418 = CARTESIAN_POINT ( 'NONE',  ( 1.694065894508600678E-18, 0.1910420470109902291, 0.2829179674119176591 ) ) ;
#419 = CARTESIAN_POINT ( 'NONE',  ( -3.684170974535036169, 2.325596474790781354, -1.842085487267518085 ) ) ;
#420 = CARTESIAN_POINT ( 'NONE',  ( 0.000000000000000000, 0.000000000000000000, 0.000000000000000000 ) ) ;
#421 = CARTESIAN_POINT ( 'NONE',  ( -44.07339215676120858, 68.89233859788996028, 22.03669607838060784 ) ) ;
#422 = CARTESIAN_POINT ( 'NONE',  ( -1.700241776741649558, 0.8303914354399861697, 0.8501208883708251118 ) ) ;
#423 = CARTESIAN_POINT ( 'NONE',  ( -3.634152421573661819E-17, 0.1910420470109902291, -0.2829179674119176591 ) ) ;
#424 = PRESENTATION_STYLE_ASSIGNMENT (( #228 ) ) ;
#425 = AXIS2_PLACEMENT_3D ( 'NONE', #221, #181, #390 ) ;
#426 = DIRECTION ( 'NONE',  ( 1.000000000000000000, 0.000000000000000000, 0.000000000000000000 ) ) ;
#427 = CARTESIAN_POINT ( 'NONE',  ( 0.1179532154951876827, 0.02291031148714136115, 0.05897660774759381358 ) ) ;
#428 = CARTESIAN_POINT ( 'NONE',  ( 0.000000000000000000, 68.86733859750462727, 0.000000000000000000 ) ) ;
#429 = CARTESIAN_POINT ( 'NONE',  ( 4.528748850421003319E-16, 2.325596474790780910, 1.842085487267518529 ) ) ;
#430 = CARTESIAN_POINT ( 'NONE',  ( -1.585530692720985095E-17, 0.05683009390154280388, -0.1156353084216678595 ) ) ;
#431 = CARTESIAN_POINT ( 'NONE',  ( 26.34890532530994989, 33.01549136552644370, 13.17445266265496961 ) ) ;
#432 = ADVANCED_FACE ( 'NONE', ( #280 ), #368, .F. ) ;
#433 = CARTESIAN_POINT ( 'NONE',  ( 1.027415822598707997E-15, 6.971087135205732643, 4.187826879629076515 ) ) ;
#434 = DIRECTION ( 'NONE',  ( 8.659560562355985494E-17, 0.7071067811864616415, -0.7071067811866335040 ) ) ;
#435 = CARTESIAN_POINT ( 'NONE',  ( 3.684170974535036169, 2.325596474790781354, 1.842085487267517641 ) ) ;
#436 = ORIENTED_EDGE ( 'NONE', *, *, #146, .T. ) ;
#437 = EDGE_CURVE ( 'NONE', #335, #307, #355, .T. ) ;
#438 = CARTESIAN_POINT ( 'NONE',  ( -2.414055578104951822E-15, 58.53750916376334601, -19.69842663117253778 ) ) ;
#439 = CARTESIAN_POINT ( 'NONE',  ( -0.8252439408800275045, 0.3168166732488152393, 0.4126219704400139188 ) ) ;
#440 = CARTESIAN_POINT ( 'NONE',  ( 1.694065894508600678E-18, 0.001839143305495788069, 0.008888701895070450637 ) ) ;
#441 = CARTESIAN_POINT ( 'NONE',  ( -0.8252439408800275045, 0.3168166732488152393, -0.4126219704400137522 ) ) ;
#442 = DIRECTION ( 'NONE',  ( 0.000000000000000000, 0.000000000000000000, 1.000000000000000000 ) ) ;
#443 = CARTESIAN_POINT ( 'NONE',  ( 1.694065894508699286E-18, 46.93108032830016185, 16.90175750420060297 ) ) ;
#444 = ORIENTED_EDGE ( 'NONE', *, *, #111, .T. ) ;
#445 = LINE ( 'NONE', #170, #353 ) ;
#446 = CARTESIAN_POINT ( 'NONE',  ( -26.34890532530994633, 33.01549136552644370, 13.17445266265497494 ) ) ;
#447 = DIRECTION ( 'NONE',  ( 0.000000000000000000, 0.000000000000000000, -1.000000000000000000 ) ) ;
#448 = CARTESIAN_POINT ( 'NONE',  ( 1.694065894508600678E-18, 11.98754700205346957, 6.266678683810557260 ) ) ;
#449 = CARTESIAN_POINT ( 'NONE',  ( -18.64241968219679535, 20.50959668899019306, -9.321209841098397675 ) ) ;
ENDSEC;
END-ISO-10303-21;
