ISO-10303-21;
HEADER;
FILE_DESCRIPTION (( 'STEP AP203' ),
    '1' );
FILE_NAME ('battery holder with hole.STEP',
    '2025-08-14T02:16:35',
    ( '' ),
    ( '' ),
    'SwSTEP 2.0',
    'SolidWorks 2025',
    '' );
FILE_SCHEMA (( 'CONFIG_CONTROL_DESIGN' ));
ENDSEC;

DATA;
#1 = LINE ( 'NONE', #167, #687 ) ;
#2 = LINE ( 'NONE', #666, #312 ) ;
#3 = VECTOR ( 'NONE', #157, 1000.000000000000000 ) ;
#4 = DIRECTION ( 'NONE',  ( 1.000000000000000000, 0.000000000000000000, 0.000000000000000000 ) ) ;
#5 = PRODUCT_RELATED_PRODUCT_CATEGORY ( 'detail', '', ( #390 ) ) ;
#6 = EDGE_CURVE ( 'NONE', #300, #470, #75, .T. ) ;
#7 = DIRECTION ( 'NONE',  ( 1.000000000000000000, 0.000000000000000000, -1.318178933113075479E-16 ) ) ;
#8 = CARTESIAN_POINT ( 'NONE',  ( 14.42999999999999972, -3.380000000000000338, 2.500000000000000000 ) ) ;
#9 = AXIS2_PLACEMENT_3D ( 'NONE', #700, #652, #48 ) ;
#10 = AXIS2_PLACEMENT_3D ( 'NONE', #393, #27, #565 ) ;
#11 =( NAMED_UNIT ( * ) SI_UNIT ( $, .STERADIAN. ) SOLID_ANGLE_UNIT ( ) );
#12 = CARTESIAN_POINT ( 'NONE',  ( 16.92999999999999972, -1.379999999999999893, 18.00000000000000355 ) ) ;
#13 = ADVANCED_FACE ( 'NONE', ( #236 ), #23, .T. ) ;
#14 = ORIENTED_EDGE ( 'NONE', *, *, #108, .F. ) ;
#15 = DIRECTION ( 'NONE',  ( 0.000000000000000000, 0.000000000000000000, -1.000000000000000000 ) ) ;
#16 = LINE ( 'NONE', #77, #319 ) ;
#17 = FACE_OUTER_BOUND ( 'NONE', #30, .T. ) ;
#18 = VERTEX_POINT ( 'NONE', #635 ) ;
#19 = PERSON_AND_ORGANIZATION ( #641, #498 ) ;
#20 = LINE ( 'NONE', #235, #593 ) ;
#21 = EDGE_LOOP ( 'NONE', ( #467, #305, #46, #358 ) ) ;
#22 = APPROVAL_STATUS ( 'not_yet_approved' ) ;
#23 = PLANE ( 'NONE',  #242 ) ;
#24 = VERTEX_POINT ( 'NONE', #33 ) ;
#25 = APPROVAL_STATUS ( 'not_yet_approved' ) ;
#26 = CLOSED_SHELL ( 'NONE', ( #80, #294, #59, #437, #499, #698, #267, #13, #669, #213, #339, #161, #169, #611, #615, #32, #264, #190, #174, #637 ) ) ;
#27 = DIRECTION ( 'NONE',  ( 0.000000000000000000, 0.000000000000000000, 1.000000000000000000 ) ) ;
#28 = LINE ( 'NONE', #573, #713 ) ;
#29 = LOCAL_TIME ( 22, 16, 35.00000000000000000, #572 ) ;
#30 = EDGE_LOOP ( 'NONE', ( #205, #574, #668, #124 ) ) ;
#31 = APPROVAL_DATE_TIME ( #301, #357 ) ;
#32 = ADVANCED_FACE ( 'NONE', ( #184 ), #686, .F. ) ;
#33 = CARTESIAN_POINT ( 'NONE',  ( 14.42999999999999972, -3.380000000000000338, 5.500000000000000000 ) ) ;
#34 = ORIENTED_EDGE ( 'NONE', *, *, #6, .T. ) ;
#35 = ORIENTED_EDGE ( 'NONE', *, *, #661, .F. ) ;
#36 = AXIS2_PLACEMENT_3D ( 'NONE', #673, #283, #221 ) ;
#37 = EDGE_LOOP ( 'NONE', ( #414, #65 ) ) ;
#38 = CARTESIAN_POINT ( 'NONE',  ( 11.92999999999999972, -1.379999999999999893, 8.000000000000000000 ) ) ;
#39 = CARTESIAN_POINT ( 'NONE',  ( -17.23000000000000043, 0.000000000000000000, 8.000000000000000000 ) ) ;
#40 = VERTEX_POINT ( 'NONE', #413 ) ;
#41 = ORIENTED_EDGE ( 'NONE', *, *, #63, .F. ) ;
#42 = CARTESIAN_POINT ( 'NONE',  ( -14.73000000000000043, -3.380000000000000338, 4.000000000000000000 ) ) ;
#43 = ORIENTED_EDGE ( 'NONE', *, *, #684, .F. ) ;
#44 = CARTESIAN_POINT ( 'NONE',  ( -12.23000000000000043, -2.733977849380974830E-15, 0.000000000000000000 ) ) ;
#45 = ORIENTED_EDGE ( 'NONE', *, *, #231, .T. ) ;
#46 = ORIENTED_EDGE ( 'NONE', *, *, #539, .F. ) ;
#47 = DIRECTION ( 'NONE',  ( 0.000000000000000000, 0.000000000000000000, -1.000000000000000000 ) ) ;
#48 = DIRECTION ( 'NONE',  ( 1.000000000000000000, 0.000000000000000000, 0.000000000000000000 ) ) ;
#49 = EDGE_CURVE ( 'NONE', #117, #40, #123, .T. ) ;
#50 = CARTESIAN_POINT ( 'NONE',  ( -17.23000000000000043, -3.380000000000000338, 8.000000000000000000 ) ) ;
#51 = LINE ( 'NONE', #594, #304 ) ;
#52 = CARTESIAN_POINT ( 'NONE',  ( -1.196959198423998128E-16, -1.379999999999999893, 8.000000000000000000 ) ) ;
#53 = DIRECTION ( 'NONE',  ( 1.000000000000000000, 0.000000000000000000, 0.000000000000000000 ) ) ;
#54 = EDGE_CURVE ( 'NONE', #24, #181, #493, .T. ) ;
#55 = CARTESIAN_POINT ( 'NONE',  ( -14.73000000000000043, -1.379999999999999893, 4.000000000000000000 ) ) ;
#56 = DIRECTION ( 'NONE',  ( -1.000000000000000000, 0.000000000000000000, 0.000000000000000000 ) ) ;
#57 = CARTESIAN_POINT ( 'NONE',  ( 11.92999999999999972, -1.379999999999999893, 0.000000000000000000 ) ) ;
#58 = VECTOR ( 'NONE', #4, 1000.000000000000000 ) ;
#59 = ADVANCED_FACE ( 'NONE', ( #515 ), #132, .F. ) ;
#60 = VECTOR ( 'NONE', #705, 1000.000000000000000 ) ;
#61 = PLANE ( 'NONE',  #469 ) ;
#62 = DIRECTION ( 'NONE',  ( 0.000000000000000000, 0.000000000000000000, 1.000000000000000000 ) ) ;
#63 = EDGE_CURVE ( 'NONE', #237, #674, #28, .T. ) ;
#64 = VECTOR ( 'NONE', #15, 1000.000000000000000 ) ;
#65 = ORIENTED_EDGE ( 'NONE', *, *, #541, .T. ) ;
#66 = CARTESIAN_POINT ( 'NONE',  ( -14.73000000000000043, -1.379999999999999893, 4.000000000000000000 ) ) ;
#67 = ORIENTED_EDGE ( 'NONE', *, *, #415, .T. ) ;
#68 = CIRCLE ( 'NONE', #476, 1.499999999999988232 ) ;
#69 = DIRECTION ( 'NONE',  ( 0.000000000000000000, 1.000000000000000000, 0.000000000000000000 ) ) ;
#70 = ORIENTED_EDGE ( 'NONE', *, *, #597, .T. ) ;
#71 = PERSON_AND_ORGANIZATION ( #641, #498 ) ;
#72 = DIRECTION ( 'NONE',  ( 0.000000000000000000, 1.000000000000000000, 0.000000000000000000 ) ) ;
#73 = CARTESIAN_POINT ( 'NONE',  ( 14.42999999999999972, -3.380000000000000338, 4.000000000000000000 ) ) ;
#74 = LINE ( 'NONE', #338, #377 ) ;
#75 = LINE ( 'NONE', #295, #427 ) ;
#76 = SECURITY_CLASSIFICATION_LEVEL ( 'unclassified' ) ;
#77 = CARTESIAN_POINT ( 'NONE',  ( -17.23000000000000043, 0.000000000000000000, 0.000000000000000000 ) ) ;
#78 = DIRECTION ( 'NONE',  ( 0.000000000000000000, 0.000000000000000000, 1.000000000000000000 ) ) ;
#79 = EDGE_CURVE ( 'NONE', #308, #18, #549, .T. ) ;
#80 = ADVANCED_FACE ( 'NONE', ( #677 ), #247, .T. ) ;
#81 = APPROVAL_DATE_TIME ( #463, #485 ) ;
#82 = CARTESIAN_POINT ( 'NONE',  ( 14.42999999999999972, -1.379999999999999893, 4.000000000000000000 ) ) ;
#83 = VERTEX_POINT ( 'NONE', #398 ) ;
#84 = EDGE_CURVE ( 'NONE', #263, #411, #293, .T. ) ;
#85 = DIRECTION ( 'NONE',  ( 0.000000000000000000, 1.000000000000000000, 0.000000000000000000 ) ) ;
#86 = EDGE_LOOP ( 'NONE', ( #253, #450, #509, #201 ) ) ;
#87 = EDGE_LOOP ( 'NONE', ( #578, #633 ) ) ;
#88 = ADVANCED_BREP_SHAPE_REPRESENTATION ( 'battery holder with hole', ( #602, #210 ), #96 ) ;
#89 = ORIENTED_EDGE ( 'NONE', *, *, #222, .T. ) ;
#90 = CARTESIAN_POINT ( 'NONE',  ( -9.230000000000000426, -3.380000000000000338, 8.000000000000000000 ) ) ;
#91 = ORIENTED_EDGE ( 'NONE', *, *, #54, .F. ) ;
#92 = AXIS2_PLACEMENT_3D ( 'NONE', #360, #566, #188 ) ;
#93 = ORIENTED_EDGE ( 'NONE', *, *, #546, .F. ) ;
#94 = EDGE_CURVE ( 'NONE', #513, #416, #625, .T. ) ;
#95 = ORIENTED_EDGE ( 'NONE', *, *, #661, .T. ) ;
#96 =( GEOMETRIC_REPRESENTATION_CONTEXT ( 3 ) GLOBAL_UNCERTAINTY_ASSIGNED_CONTEXT ( ( #382 ) ) GLOBAL_UNIT_ASSIGNED_CONTEXT ( ( #681, #548, #11 ) ) REPRESENTATION_CONTEXT ( 'NONE', 'WORKASPACE' ) );
#97 = ORIENTED_EDGE ( 'NONE', *, *, #389, .T. ) ;
#98 = CARTESIAN_POINT ( 'NONE',  ( -12.23000000000000043, 6.379999999999999893, 18.00000000000000355 ) ) ;
#99 = ORIENTED_EDGE ( 'NONE', *, *, #254, .F. ) ;
#100 = DIRECTION ( 'NONE',  ( 0.000000000000000000, 0.000000000000000000, 1.000000000000000000 ) ) ;
#101 = CARTESIAN_POINT ( 'NONE',  ( 0.000000000000000000, -3.380000000000000338, 8.000000000000000000 ) ) ;
#102 = CC_DESIGN_DATE_AND_TIME_ASSIGNMENT ( #402, #194, ( #538 ) ) ;
#103 = FACE_OUTER_BOUND ( 'NONE', #477, .T. ) ;
#104 = EDGE_CURVE ( 'NONE', #290, #256, #466, .T. ) ;
#105 = DIRECTION ( 'NONE',  ( 1.000000000000000000, 5.204170427930419311E-16, 0.000000000000000000 ) ) ;
#106 = CC_DESIGN_SECURITY_CLASSIFICATION ( #422, ( #429 ) ) ;
#107 = DIRECTION ( 'NONE',  ( -0.000000000000000000, 0.000000000000000000, 1.000000000000000000 ) ) ;
#108 = EDGE_CURVE ( 'NONE', #316, #470, #329, .T. ) ;
#109 = APPROVAL_PERSON_ORGANIZATION ( #620, #485, #634 ) ;
#110 = CARTESIAN_POINT ( 'NONE',  ( -9.230000000000000426, 3.380000000000000338, 0.000000000000000000 ) ) ;
#111 = CARTESIAN_POINT ( 'NONE',  ( 11.92999999999999972, 6.379999999999999893, 18.00000000000000355 ) ) ;
#112 = LINE ( 'NONE', #337, #586 ) ;
#113 = LINE ( 'NONE', #616, #145 ) ;
#114 = VERTEX_POINT ( 'NONE', #506 ) ;
#115 = AXIS2_PLACEMENT_3D ( 'NONE', #39, #712, #208 ) ;
#116 = FACE_OUTER_BOUND ( 'NONE', #146, .T. ) ;
#117 = VERTEX_POINT ( 'NONE', #496 ) ;
#118 = FACE_OUTER_BOUND ( 'NONE', #135, .T. ) ;
#119 = ORIENTED_EDGE ( 'NONE', *, *, #410, .F. ) ;
#120 = ORIENTED_EDGE ( 'NONE', *, *, #423, .T. ) ;
#121 = PERSON_AND_ORGANIZATION ( #641, #498 ) ;
#122 = AXIS2_PLACEMENT_3D ( 'NONE', #52, #553, #166 ) ;
#123 = LINE ( 'NONE', #576, #328 ) ;
#124 = ORIENTED_EDGE ( 'NONE', *, *, #684, .T. ) ;
#125 = PERSON_AND_ORGANIZATION ( #641, #498 ) ;
#126 = DIRECTION ( 'NONE',  ( 0.000000000000000000, 1.000000000000000000, 0.000000000000000000 ) ) ;
#127 = DIRECTION ( 'NONE',  ( 1.000000000000000000, 4.336808689942019585E-17, 0.000000000000000000 ) ) ;
#128 = EDGE_CURVE ( 'NONE', #482, #290, #168, .T. ) ;
#129 = VECTOR ( 'NONE', #425, 1000.000000000000000 ) ;
#130 = ORIENTED_EDGE ( 'NONE', *, *, #278, .T. ) ;
#131 = DATE_AND_TIME ( #176, #651 ) ;
#132 = CYLINDRICAL_SURFACE ( 'NONE', #648, 1.499999999999999556 ) ;
#133 = ORIENTED_EDGE ( 'NONE', *, *, #134, .T. ) ;
#134 = EDGE_CURVE ( 'NONE', #416, #114, #386, .T. ) ;
#135 = EDGE_LOOP ( 'NONE', ( #89, #43, #368, #561, #371, #473 ) ) ;
#136 = PERSON_AND_ORGANIZATION ( #641, #498 ) ;
#137 = ORIENTED_EDGE ( 'NONE', *, *, #376, .F. ) ;
#138 = ORIENTED_EDGE ( 'NONE', *, *, #6, .F. ) ;
#139 = DIRECTION ( 'NONE',  ( 0.000000000000000000, 0.000000000000000000, 1.000000000000000000 ) ) ;
#140 = ORIENTED_EDGE ( 'NONE', *, *, #245, .F. ) ;
#141 = ORIENTED_EDGE ( 'NONE', *, *, #79, .T. ) ;
#142 = CARTESIAN_POINT ( 'NONE',  ( -14.73000000000000043, -3.380000000000000338, 4.000000000000000000 ) ) ;
#143 = CARTESIAN_POINT ( 'NONE',  ( 0.000000000000000000, 6.379999999999999893, 8.000000000000000000 ) ) ;
#144 = EDGE_LOOP ( 'NONE', ( #421, #34, #193, #472, #45, #286, #405, #626, #522, #699, #638, #93 ) ) ;
#145 = VECTOR ( 'NONE', #56, 1000.000000000000000 ) ;
#146 = EDGE_LOOP ( 'NONE', ( #364, #479, #35, #260 ) ) ;
#147 = FACE_OUTER_BOUND ( 'NONE', #349, .T. ) ;
#148 = VERTEX_POINT ( 'NONE', #663 ) ;
#149 = VECTOR ( 'NONE', #381, 1000.000000000000000 ) ;
#150 = CC_DESIGN_PERSON_AND_ORGANIZATION_ASSIGNMENT ( #121, #568, ( #429 ) ) ;
#151 = VECTOR ( 'NONE', #227, 1000.000000000000000 ) ;
#152 = EDGE_CURVE ( 'NONE', #256, #644, #113, .T. ) ;
#153 = DIRECTION ( 'NONE',  ( 1.000000000000000000, 0.000000000000000000, 0.000000000000000000 ) ) ;
#154 = CARTESIAN_POINT ( 'NONE',  ( -4.229999999999997762, -17.45784074352313553, 18.00000000000000355 ) ) ;
#155 = DIRECTION ( 'NONE',  ( 0.000000000000000000, 0.000000000000000000, -1.000000000000000000 ) ) ;
#156 = EDGE_CURVE ( 'NONE', #482, #83, #172, .T. ) ;
#157 = DIRECTION ( 'NONE',  ( 0.000000000000000000, 1.000000000000000000, 0.000000000000000000 ) ) ;
#158 = CARTESIAN_POINT ( 'NONE',  ( -14.73000000000000043, -1.379999999999999893, 4.000000000000000000 ) ) ;
#159 = CARTESIAN_POINT ( 'NONE',  ( -12.23000000000000043, -1.379999999999999893, 8.000000000000000000 ) ) ;
#160 = CARTESIAN_POINT ( 'NONE',  ( -17.23000000000000043, -3.380000000000000338, 18.00000000000000355 ) ) ;
#161 = ADVANCED_FACE ( 'NONE', ( #17 ), #229, .F. ) ;
#162 = LINE ( 'NONE', #544, #622 ) ;
#163 = DIRECTION ( 'NONE',  ( -5.204170427930419311E-16, 1.000000000000000000, 0.000000000000000000 ) ) ;
#164 = PLANE ( 'NONE',  #219 ) ;
#165 = CARTESIAN_POINT ( 'NONE',  ( -12.23000000000000043, 6.379999999999999893, 0.000000000000000000 ) ) ;
#166 = DIRECTION ( 'NONE',  ( -1.000000000000000000, 8.673617379884039170E-17, 0.000000000000000000 ) ) ;
#167 = CARTESIAN_POINT ( 'NONE',  ( 16.92999999999999972, -1.379999999999999893, 8.000000000000000000 ) ) ;
#168 = LINE ( 'NONE', #111, #583 ) ;
#169 = ADVANCED_FACE ( 'NONE', ( #394, #118 ), #326, .F. ) ;
#170 = DIRECTION ( 'NONE',  ( 0.000000000000000000, 1.000000000000000000, 0.000000000000000000 ) ) ;
#171 = FACE_OUTER_BOUND ( 'NONE', #144, .T. ) ;
#172 = LINE ( 'NONE', #659, #521 ) ;
#173 = DIRECTION ( 'NONE',  ( 0.000000000000000000, 1.000000000000000000, 0.000000000000000000 ) ) ;
#174 = ADVANCED_FACE ( 'NONE', ( #550 ), #61, .F. ) ;
#175 = APPROVAL_PERSON_ORGANIZATION ( #19, #357, #406 ) ;
#176 = CALENDAR_DATE ( 2025, 13, 8 ) ;
#177 = LINE ( 'NONE', #685, #537 ) ;
#178 = DIRECTION ( 'NONE',  ( 0.000000000000000000, 0.000000000000000000, 1.000000000000000000 ) ) ;
#179 = VERTEX_POINT ( 'NONE', #165 ) ;
#180 = VECTOR ( 'NONE', #667, 1000.000000000000000 ) ;
#181 = VERTEX_POINT ( 'NONE', #8 ) ;
#182 = PERSON_AND_ORGANIZATION_ROLE ( 'creator' ) ;
#183 = AXIS2_PLACEMENT_3D ( 'NONE', #42, #259, #478 ) ;
#184 = FACE_OUTER_BOUND ( 'NONE', #711, .T. ) ;
#185 = VECTOR ( 'NONE', #555, 1000.000000000000000 ) ;
#186 = EDGE_LOOP ( 'NONE', ( #41, #284, #526, #642 ) ) ;
#187 = COORDINATED_UNIVERSAL_TIME_OFFSET ( 5, 0, .BEHIND. ) ;
#188 = DIRECTION ( 'NONE',  ( 0.000000000000000000, 0.000000000000000000, 1.000000000000000000 ) ) ;
#189 = PRODUCT_DEFINITION_SHAPE ( 'NONE', 'NONE',  #538 ) ;
#190 = ADVANCED_FACE ( 'NONE', ( #497 ), #164, .T. ) ;
#191 = VECTOR ( 'NONE', #53, 1000.000000000000000 ) ;
#192 = VECTOR ( 'NONE', #69, 1000.000000000000000 ) ;
#193 = ORIENTED_EDGE ( 'NONE', *, *, #490, .F. ) ;
#194 = DATE_TIME_ROLE ( 'creation_date' ) ;
#195 = CARTESIAN_POINT ( 'NONE',  ( -12.23000000000000043, -2.733977849380974830E-15, 8.000000000000000000 ) ) ;
#196 = VERTEX_POINT ( 'NONE', #324 ) ;
#197 = ORIENTED_EDGE ( 'NONE', *, *, #653, .T. ) ;
#198 = EDGE_LOOP ( 'NONE', ( #137, #689, #197, #461 ) ) ;
#199 = CARTESIAN_POINT ( 'NONE',  ( 8.929999999999999716, -3.380000000000000338, 0.000000000000000000 ) ) ;
#200 = ORIENTED_EDGE ( 'NONE', *, *, #363, .F. ) ;
#201 = ORIENTED_EDGE ( 'NONE', *, *, #570, .T. ) ;
#202 = FACE_OUTER_BOUND ( 'NONE', #186, .T. ) ;
#203 = FACE_OUTER_BOUND ( 'NONE', #342, .T. ) ;
#204 = ORIENTED_EDGE ( 'NONE', *, *, #254, .T. ) ;
#205 = ORIENTED_EDGE ( 'NONE', *, *, #546, .T. ) ;
#206 = ORIENTED_EDGE ( 'NONE', *, *, #152, .F. ) ;
#207 = EDGE_CURVE ( 'NONE', #306, #258, #629, .T. ) ;
#208 = DIRECTION ( 'NONE',  ( 0.000000000000000000, 0.000000000000000000, 1.000000000000000000 ) ) ;
#209 = LINE ( 'NONE', #212, #688 ) ;
#210 = AXIS2_PLACEMENT_3D ( 'NONE', #679, #396, #682 ) ;
#211 = DIRECTION ( 'NONE',  ( 0.000000000000000000, 0.000000000000000000, -1.000000000000000000 ) ) ;
#212 = CARTESIAN_POINT ( 'NONE',  ( 14.42999999999999972, -1.379999999999999893, 5.500000000000000000 ) ) ;
#213 = ADVANCED_FACE ( 'NONE', ( #327 ), #443, .F. ) ;
#214 = APPLICATION_CONTEXT ( 'configuration controlled 3d designs of mechanical parts and assemblies' ) ;
#215 = FACE_OUTER_BOUND ( 'NONE', #366, .T. ) ;
#216 = LOCAL_TIME ( 22, 16, 35.00000000000000000, #630 ) ;
#217 = DIRECTION ( 'NONE',  ( 0.000000000000000000, 1.000000000000000000, 0.000000000000000000 ) ) ;
#218 = DIRECTION ( 'NONE',  ( -0.000000000000000000, 1.000000000000000000, -0.000000000000000000 ) ) ;
#219 = AXIS2_PLACEMENT_3D ( 'NONE', #598, #107, #492 ) ;
#220 = VECTOR ( 'NONE', #456, 1000.000000000000000 ) ;
#221 = DIRECTION ( 'NONE',  ( 0.000000000000000000, 0.000000000000000000, 1.000000000000000000 ) ) ;
#222 = EDGE_CURVE ( 'NONE', #300, #148, #601, .T. ) ;
#223 = LINE ( 'NONE', #447, #3 ) ;
#224 = CARTESIAN_POINT ( 'NONE',  ( 8.929999999999999716, 3.380000000000000338, 8.000000000000000000 ) ) ;
#225 = ORIENTED_EDGE ( 'NONE', *, *, #710, .T. ) ;
#226 = PLANE ( 'NONE',  #462 ) ;
#227 = DIRECTION ( 'NONE',  ( 0.000000000000000000, 1.000000000000000000, 0.000000000000000000 ) ) ;
#228 = CARTESIAN_POINT ( 'NONE',  ( 0.000000000000000000, 3.380000000000000338, 0.000000000000000000 ) ) ;
#229 = PLANE ( 'NONE',  #36 ) ;
#230 = EDGE_LOOP ( 'NONE', ( #454, #680 ) ) ;
#231 = EDGE_CURVE ( 'NONE', #261, #581, #551, .T. ) ;
#232 = LINE ( 'NONE', #38, #64 ) ;
#233 = ORIENTED_EDGE ( 'NONE', *, *, #541, .F. ) ;
#234 = APPLICATION_PROTOCOL_DEFINITION ( 'international standard', 'config_control_design', 1994, #214 ) ;
#235 = CARTESIAN_POINT ( 'NONE',  ( -12.23000000000000043, 6.379999999999999893, 8.000000000000000000 ) ) ;
#236 = FACE_OUTER_BOUND ( 'NONE', #536, .T. ) ;
#237 = VERTEX_POINT ( 'NONE', #57 ) ;
#238 = LINE ( 'NONE', #618, #654 ) ;
#239 = PERSON_AND_ORGANIZATION_ROLE ( 'creator' ) ;
#240 = LINE ( 'NONE', #510, #695 ) ;
#241 = DIRECTION ( 'NONE',  ( -1.000000000000000000, 0.000000000000000000, 0.000000000000000000 ) ) ;
#242 = AXIS2_PLACEMENT_3D ( 'NONE', #195, #520, #696 ) ;
#243 = ORIENTED_EDGE ( 'NONE', *, *, #84, .T. ) ;
#244 = CALENDAR_DATE ( 2025, 13, 8 ) ;
#245 = EDGE_CURVE ( 'NONE', #179, #83, #330, .T. ) ;
#246 = CARTESIAN_POINT ( 'NONE',  ( -17.23000000000000043, -3.380000000000000338, 18.00000000000000355 ) ) ;
#247 = PLANE ( 'NONE',  #311 ) ;
#248 = VECTOR ( 'NONE', #170, 1000.000000000000000 ) ;
#249 = DIRECTION ( 'NONE',  ( 0.000000000000000000, -1.000000000000000000, 0.000000000000000000 ) ) ;
#250 = ORIENTED_EDGE ( 'NONE', *, *, #49, .F. ) ;
#251 = AXIS2_PLACEMENT_3D ( 'NONE', #314, #534, #100 ) ;
#252 = EDGE_LOOP ( 'NONE', ( #531, #671, #418, #130 ) ) ;
#253 = ORIENTED_EDGE ( 'NONE', *, *, #444, .T. ) ;
#254 = EDGE_CURVE ( 'NONE', #503, #527, #543, .T. ) ;
#255 = CARTESIAN_POINT ( 'NONE',  ( -17.23000000000000043, -1.379999999999999893, 8.000000000000000000 ) ) ;
#256 = VERTEX_POINT ( 'NONE', #385 ) ;
#257 = CIRCLE ( 'NONE', #183, 1.499999999999999556 ) ;
#258 = VERTEX_POINT ( 'NONE', #605 ) ;
#259 = DIRECTION ( 'NONE',  ( 0.000000000000000000, 1.000000000000000000, 0.000000000000000000 ) ) ;
#260 = ORIENTED_EDGE ( 'NONE', *, *, #309, .T. ) ;
#261 = VERTEX_POINT ( 'NONE', #660 ) ;
#262 = CARTESIAN_POINT ( 'NONE',  ( -14.73000000000000043, -3.380000000000000338, 2.500000000000000000 ) ) ;
#263 = VERTEX_POINT ( 'NONE', #373 ) ;
#264 = ADVANCED_FACE ( 'NONE', ( #530 ), #592, .F. ) ;
#265 = VERTEX_POINT ( 'NONE', #262 ) ;
#266 = DIRECTION ( 'NONE',  ( 1.000000000000000000, 0.000000000000000000, 0.000000000000000000 ) ) ;
#267 = ADVANCED_FACE ( 'NONE', ( #480 ), #707, .T. ) ;
#268 = LINE ( 'NONE', #647, #378 ) ;
#269 = DIRECTION ( 'NONE',  ( 1.000000000000000000, 0.000000000000000000, 0.000000000000000000 ) ) ;
#270 = CARTESIAN_POINT ( 'NONE',  ( 11.92999999999999972, -2.666913797474654972E-15, 8.000000000000000000 ) ) ;
#271 = CARTESIAN_POINT ( 'NONE',  ( 14.42999999999999972, -1.379999999999999893, 4.000000000000000000 ) ) ;
#272 = CC_DESIGN_APPROVAL ( #357, ( #422 ) ) ;
#273 = AXIS2_PLACEMENT_3D ( 'NONE', #142, #433, #139 ) ;
#274 = APPROVAL_PERSON_ORGANIZATION ( #676, #557, #694 ) ;
#275 = DIRECTION ( 'NONE',  ( -0.000000000000000000, 1.000000000000000000, -0.000000000000000000 ) ) ;
#276 = CARTESIAN_POINT ( 'NONE',  ( -4.229999999999997762, -17.45784074352313553, 13.00000000000000178 ) ) ;
#277 = CARTESIAN_POINT ( 'NONE',  ( -17.23000000000000043, -1.379999999999999893, 0.000000000000000000 ) ) ;
#278 = EDGE_CURVE ( 'NONE', #40, #316, #321, .T. ) ;
#279 = EDGE_CURVE ( 'NONE', #644, #571, #588, .T. ) ;
#280 = AXIS2_PLACEMENT_3D ( 'NONE', #442, #163, #607 ) ;
#281 = VECTOR ( 'NONE', #672, 1000.000000000000000 ) ;
#282 = EDGE_CURVE ( 'NONE', #196, #571, #268, .T. ) ;
#283 = DIRECTION ( 'NONE',  ( -1.000000000000000000, 0.000000000000000000, 0.000000000000000000 ) ) ;
#284 = ORIENTED_EDGE ( 'NONE', *, *, #570, .F. ) ;
#285 = CARTESIAN_POINT ( 'NONE',  ( -17.23000000000000043, -3.380000000000000338, 0.000000000000000000 ) ) ;
#286 = ORIENTED_EDGE ( 'NONE', *, *, #464, .T. ) ;
#287 = DATE_AND_TIME ( #345, #491 ) ;
#288 = DIRECTION ( 'NONE',  ( -1.000000000000000000, 0.000000000000000000, 0.000000000000000000 ) ) ;
#289 = VERTEX_POINT ( 'NONE', #430 ) ;
#290 = VERTEX_POINT ( 'NONE', #98 ) ;
#291 = MECHANICAL_CONTEXT ( 'NONE', #214, 'mechanical' ) ;
#292 = CARTESIAN_POINT ( 'NONE',  ( 8.929999999999999716, 3.380000000000000338, 0.000000000000000000 ) ) ;
#293 = LINE ( 'NONE', #460, #400 ) ;
#294 = ADVANCED_FACE ( 'NONE', ( #147 ), #317, .F. ) ;
#295 = CARTESIAN_POINT ( 'NONE',  ( 8.929999999999999716, 0.000000000000000000, 0.000000000000000000 ) ) ;
#296 = PERSON_AND_ORGANIZATION_ROLE ( 'classification_officer' ) ;
#297 = DIRECTION ( 'NONE',  ( 1.000000000000000000, 0.000000000000000000, 0.000000000000000000 ) ) ;
#298 = DIRECTION ( 'NONE',  ( 0.000000000000000000, 0.000000000000000000, -1.000000000000000000 ) ) ;
#299 = VECTOR ( 'NONE', #569, 1000.000000000000000 ) ;
#300 = VERTEX_POINT ( 'NONE', #199 ) ;
#301 = DATE_AND_TIME ( #353, #216 ) ;
#302 = CARTESIAN_POINT ( 'NONE',  ( 8.929999999999999716, 0.000000000000000000, 8.000000000000000000 ) ) ;
#303 = EDGE_LOOP ( 'NONE', ( #528, #67, #587, #138 ) ) ;
#304 = VECTOR ( 'NONE', #269, 1000.000000000000000 ) ;
#305 = ORIENTED_EDGE ( 'NONE', *, *, #389, .F. ) ;
#306 = VERTEX_POINT ( 'NONE', #640 ) ;
#307 = ORIENTED_EDGE ( 'NONE', *, *, #332, .F. ) ;
#308 = VERTEX_POINT ( 'NONE', #487 ) ;
#309 = EDGE_CURVE ( 'NONE', #527, #261, #643, .T. ) ;
#310 = ORIENTED_EDGE ( 'NONE', *, *, #664, .F. ) ;
#311 = AXIS2_PLACEMENT_3D ( 'NONE', #302, #241, #178 ) ;
#312 = VECTOR ( 'NONE', #334, 1000.000000000000000 ) ;
#313 = ORIENTED_EDGE ( 'NONE', *, *, #646, .F. ) ;
#314 = CARTESIAN_POINT ( 'NONE',  ( 14.42999999999999972, -1.379999999999999893, 4.000000000000000000 ) ) ;
#315 = ORIENTED_EDGE ( 'NONE', *, *, #646, .T. ) ;
#316 = VERTEX_POINT ( 'NONE', #417 ) ;
#317 = PLANE ( 'NONE',  #9 ) ;
#318 = VECTOR ( 'NONE', #105, 1000.000000000000000 ) ;
#319 = VECTOR ( 'NONE', #126, 1000.000000000000000 ) ;
#320 = EDGE_CURVE ( 'NONE', #265, #703, #494, .T. ) ;
#321 = LINE ( 'NONE', #365, #407 ) ;
#322 = LINE ( 'NONE', #50, #370 ) ;
#323 = CARTESIAN_POINT ( 'NONE',  ( 0.000000000000000000, 6.379999999999999893, 0.000000000000000000 ) ) ;
#324 = CARTESIAN_POINT ( 'NONE',  ( -12.23000000000000043, -1.379999999999999893, 0.000000000000000000 ) ) ;
#325 = CARTESIAN_POINT ( 'NONE',  ( -14.73000000000000043, -3.380000000000000338, 5.500000000000000000 ) ) ;
#326 = PLANE ( 'NONE',  #280 ) ;
#327 = FACE_OUTER_BOUND ( 'NONE', #86, .T. ) ;
#328 = VECTOR ( 'NONE', #408, 1000.000000000000000 ) ;
#329 = LINE ( 'NONE', #224, #180 ) ;
#330 = LINE ( 'NONE', #323, #340 ) ;
#331 = CC_DESIGN_DATE_AND_TIME_ASSIGNMENT ( #287, #518, ( #422 ) ) ;
#332 = EDGE_CURVE ( 'NONE', #703, #265, #257, .T. ) ;
#333 = CC_DESIGN_APPROVAL ( #557, ( #538 ) ) ;
#334 = DIRECTION ( 'NONE',  ( 0.000000000000000000, 1.000000000000000000, 0.000000000000000000 ) ) ;
#335 = CARTESIAN_POINT ( 'NONE',  ( 8.929999999999999716, -3.380000000000000338, 18.00000000000000355 ) ) ;
#336 = AXIS2_PLACEMENT_3D ( 'NONE', #101, #383, #155 ) ;
#337 = CARTESIAN_POINT ( 'NONE',  ( 8.929999999999999716, -3.380000000000000338, 8.000000000000000000 ) ) ;
#338 = CARTESIAN_POINT ( 'NONE',  ( 16.92999999999999972, 0.000000000000000000, 0.000000000000000000 ) ) ;
#339 = ADVANCED_FACE ( 'NONE', ( #704, #202 ), #419, .T. ) ;
#340 = VECTOR ( 'NONE', #153, 1000.000000000000000 ) ;
#341 = ORIENTED_EDGE ( 'NONE', *, *, #104, .T. ) ;
#342 = EDGE_LOOP ( 'NONE', ( #140, #395, #475, #706 ) ) ;
#343 = VECTOR ( 'NONE', #489, 1000.000000000000000 ) ;
#344 = CARTESIAN_POINT ( 'NONE',  ( -17.23000000000000043, -1.379999999999999893, 18.00000000000000355 ) ) ;
#345 = CALENDAR_DATE ( 2025, 13, 8 ) ;
#346 = CARTESIAN_POINT ( 'NONE',  ( 11.92999999999999972, 6.379999999999999893, 18.00000000000000355 ) ) ;
#347 = DIRECTION ( 'NONE',  ( 0.000000000000000000, 0.000000000000000000, 1.000000000000000000 ) ) ;
#348 = DIRECTION ( 'NONE',  ( 0.000000000000000000, 0.000000000000000000, 1.000000000000000000 ) ) ;
#349 = EDGE_LOOP ( 'NONE', ( #639, #250, #636, #243, #507, #14 ) ) ;
#350 = DIRECTION ( 'NONE',  ( -1.000000000000000000, -5.204170427930419311E-16, 1.318178933113075479E-16 ) ) ;
#351 = CARTESIAN_POINT ( 'NONE',  ( -4.229999999999997762, -3.380000000000003002, 18.00000000000000355 ) ) ;
#352 = ORIENTED_EDGE ( 'NONE', *, *, #562, .T. ) ;
#353 = CALENDAR_DATE ( 2025, 13, 8 ) ;
#354 = DIRECTION ( 'NONE',  ( 0.000000000000000000, 0.000000000000000000, 1.000000000000000000 ) ) ;
#355 = ORIENTED_EDGE ( 'NONE', *, *, #279, .F. ) ;
#356 = CC_DESIGN_PERSON_AND_ORGANIZATION_ASSIGNMENT ( #71, #458, ( #390 ) ) ;
#357 = APPROVAL ( #25, 'UNSPECIFIED' ) ;
#358 = ORIENTED_EDGE ( 'NONE', *, *, #279, .T. ) ;
#359 = EDGE_CURVE ( 'NONE', #261, #411, #223, .T. ) ;
#360 = CARTESIAN_POINT ( 'NONE',  ( -14.73000000000000043, -1.379999999999999893, 4.000000000000000000 ) ) ;
#361 = ORIENTED_EDGE ( 'NONE', *, *, #320, .F. ) ;
#362 = EDGE_LOOP ( 'NONE', ( #582, #91, #315, #141 ) ) ;
#363 = EDGE_CURVE ( 'NONE', #703, #306, #2, .T. ) ;
#364 = ORIENTED_EDGE ( 'NONE', *, *, #359, .T. ) ;
#365 = CARTESIAN_POINT ( 'NONE',  ( -4.229999999999997762, 3.380000000000000338, 13.00000000000000178 ) ) ;
#366 = EDGE_LOOP ( 'NONE', ( #457, #307, #567, #529 ) ) ;
#367 = EDGE_LOOP ( 'NONE', ( #614, #645, #133, #424, #533, #650, #702, #341, #619, #675, #204, #95 ) ) ;
#368 = ORIENTED_EDGE ( 'NONE', *, *, #134, .F. ) ;
#369 = VECTOR ( 'NONE', #249, 1000.000000000000000 ) ;
#370 = VECTOR ( 'NONE', #662, 1000.000000000000000 ) ;
#371 = ORIENTED_EDGE ( 'NONE', *, *, #471, .F. ) ;
#372 = VECTOR ( 'NONE', #584, 1000.000000000000000 ) ;
#373 = CARTESIAN_POINT ( 'NONE',  ( -9.230000000000000426, 3.380000000000000338, 18.00000000000000355 ) ) ;
#374 = LINE ( 'NONE', #44, #60 ) ;
#375 = LINE ( 'NONE', #656, #149 ) ;
#376 = EDGE_CURVE ( 'NONE', #513, #40, #162, .T. ) ;
#377 = VECTOR ( 'NONE', #505, 1000.000000000000000 ) ;
#378 = VECTOR ( 'NONE', #474, 1000.000000000000000 ) ;
#379 = APPLICATION_CONTEXT ( 'configuration controlled 3d designs of mechanical parts and assemblies' ) ;
#380 = DIRECTION ( 'NONE',  ( -1.000000000000000000, 0.000000000000000000, 0.000000000000000000 ) ) ;
#381 = DIRECTION ( 'NONE',  ( -0.000000000000000000, 1.000000000000000000, -0.000000000000000000 ) ) ;
#382 = UNCERTAINTY_MEASURE_WITH_UNIT (LENGTH_MEASURE( 1.000000000000000082E-05 ), #681, 'distance_accuracy_value', 'NONE');
#383 = DIRECTION ( 'NONE',  ( 0.000000000000000000, -1.000000000000000000, 0.000000000000000000 ) ) ;
#384 = DIRECTION ( 'NONE',  ( -1.000000000000000000, 2.235468396877329909E-16, 0.000000000000000000 ) ) ;
#385 = CARTESIAN_POINT ( 'NONE',  ( -12.23000000000000043, -1.379999999999999893, 18.00000000000000355 ) ) ;
#386 = LINE ( 'NONE', #335, #58 ) ;
#387 = EDGE_CURVE ( 'NONE', #577, #674, #1, .T. ) ;
#388 = DIRECTION ( 'NONE',  ( -4.336808689942019585E-17, 1.000000000000000000, 0.000000000000000000 ) ) ;
#389 = EDGE_CURVE ( 'NONE', #503, #581, #322, .T. ) ;
#390 = PRODUCT ( 'battery holder with hole', 'battery holder with hole', '', ( #291 ) ) ;
#391 = CARTESIAN_POINT ( 'NONE',  ( 16.92999999999999972, -3.380000000000000338, 18.00000000000000355 ) ) ;
#392 = SHAPE_DEFINITION_REPRESENTATION ( #189, #88 ) ;
#393 = CARTESIAN_POINT ( 'NONE',  ( 0.000000000000000000, 0.000000000000000000, 0.000000000000000000 ) ) ;
#394 = FACE_BOUND ( 'NONE', #37, .T. ) ;
#395 = ORIENTED_EDGE ( 'NONE', *, *, #524, .F. ) ;
#396 = DIRECTION ( 'NONE',  ( 0.000000000000000000, 0.000000000000000000, 1.000000000000000000 ) ) ;
#397 = LINE ( 'NONE', #563, #192 ) ;
#398 = CARTESIAN_POINT ( 'NONE',  ( 11.92999999999999972, 6.379999999999999893, 0.000000000000000000 ) ) ;
#399 = ORIENTED_EDGE ( 'NONE', *, *, #423, .F. ) ;
#400 = VECTOR ( 'NONE', #298, 1000.000000000000000 ) ;
#401 = AXIS2_PLACEMENT_3D ( 'NONE', #143, #481, #708 ) ;
#402 = DATE_AND_TIME ( #244, #29 ) ;
#403 = LINE ( 'NONE', #459, #281 ) ;
#404 = DIRECTION ( 'NONE',  ( 0.000000000000000000, 1.000000000000000000, 0.000000000000000000 ) ) ;
#405 = ORIENTED_EDGE ( 'NONE', *, *, #282, .F. ) ;
#406 = APPROVAL_ROLE ( '' ) ;
#407 = VECTOR ( 'NONE', #540, 1000.000000000000000 ) ;
#408 = DIRECTION ( 'NONE',  ( 0.000000000000000000, 0.000000000000000000, -1.000000000000000000 ) ) ;
#409 = CC_DESIGN_PERSON_AND_ORGANIZATION_ASSIGNMENT ( #125, #239, ( #429 ) ) ;
#410 = EDGE_CURVE ( 'NONE', #258, #306, #68, .T. ) ;
#411 = VERTEX_POINT ( 'NONE', #110 ) ;
#412 = COORDINATED_UNIVERSAL_TIME_OFFSET ( 5, 0, .BEHIND. ) ;
#413 = CARTESIAN_POINT ( 'NONE',  ( -4.229999999999997762, 3.380000000000000338, 13.00000000000000178 ) ) ;
#414 = ORIENTED_EDGE ( 'NONE', *, *, #54, .T. ) ;
#415 = EDGE_CURVE ( 'NONE', #289, #316, #495, .T. ) ;
#416 = VERTEX_POINT ( 'NONE', #657 ) ;
#417 = CARTESIAN_POINT ( 'NONE',  ( 8.930000000000001492, 3.380000000000000338, 13.00000000000000000 ) ) ;
#418 = ORIENTED_EDGE ( 'NONE', *, *, #376, .T. ) ;
#419 = PLANE ( 'NONE',  #585 ) ;
#420 = PLANE ( 'NONE',  #401 ) ;
#421 = ORIENTED_EDGE ( 'NONE', *, *, #222, .F. ) ;
#422 = SECURITY_CLASSIFICATION ( '', '', #76 ) ;
#423 = EDGE_CURVE ( 'NONE', #256, #196, #441, .T. ) ;
#424 = ORIENTED_EDGE ( 'NONE', *, *, #591, .T. ) ;
#425 = DIRECTION ( 'NONE',  ( 0.000000000000000000, 0.000000000000000000, -1.000000000000000000 ) ) ;
#426 = EDGE_LOOP ( 'NONE', ( #483, #119 ) ) ;
#427 = VECTOR ( 'NONE', #621, 1000.000000000000000 ) ;
#428 = ORIENTED_EDGE ( 'NONE', *, *, #282, .T. ) ;
#429 = PRODUCT_DEFINITION_FORMATION_WITH_SPECIFIED_SOURCE ( 'ANY', '', #390, .NOT_KNOWN. ) ;
#430 = CARTESIAN_POINT ( 'NONE',  ( 8.930000000000001492, -3.379999999999995897, 13.00000000000000000 ) ) ;
#431 = CIRCLE ( 'NONE', #692, 1.499999999999999556 ) ;
#432 = CC_DESIGN_PERSON_AND_ORGANIZATION_ASSIGNMENT ( #523, #182, ( #538 ) ) ;
#433 = DIRECTION ( 'NONE',  ( 0.000000000000000000, 1.000000000000000000, 0.000000000000000000 ) ) ;
#434 = DIRECTION ( 'NONE',  ( 0.000000000000000000, 1.000000000000000000, 0.000000000000000000 ) ) ;
#435 = CYLINDRICAL_SURFACE ( 'NONE', #502, 1.499999999999999556 ) ;
#436 = DIRECTION ( 'NONE',  ( 0.000000000000000000, 0.000000000000000000, 1.000000000000000000 ) ) ;
#437 = ADVANCED_FACE ( 'NONE', ( #215 ), #435, .F. ) ;
#438 = DIRECTION ( 'NONE',  ( 0.000000000000000000, 0.000000000000000000, 1.000000000000000000 ) ) ;
#439 = DIRECTION ( 'NONE',  ( 0.000000000000000000, 0.000000000000000000, 1.000000000000000000 ) ) ;
#440 = DIRECTION ( 'NONE',  ( 0.000000000000000000, 1.000000000000000000, 0.000000000000000000 ) ) ;
#441 = LINE ( 'NONE', #159, #343 ) ;
#442 = CARTESIAN_POINT ( 'NONE',  ( 1.759009604640485155E-15, -3.380000000000000338, 8.000000000000000000 ) ) ;
#443 = PLANE ( 'NONE',  #655 ) ;
#444 = EDGE_CURVE ( 'NONE', #237, #83, #403, .T. ) ;
#445 = DIRECTION ( 'NONE',  ( 1.000000000000000000, 4.336808689942019585E-17, 0.000000000000000000 ) ) ;
#446 = LINE ( 'NONE', #504, #185 ) ;
#447 = CARTESIAN_POINT ( 'NONE',  ( -9.230000000000000426, 0.000000000000000000, 0.000000000000000000 ) ) ;
#448 = CARTESIAN_POINT ( 'NONE',  ( -9.230000000000000426, 0.000000000000000000, 8.000000000000000000 ) ) ;
#449 = LINE ( 'NONE', #670, #248 ) ;
#450 = ORIENTED_EDGE ( 'NONE', *, *, #156, .F. ) ;
#451 = CALENDAR_DATE ( 2025, 13, 8 ) ;
#452 = DIRECTION ( 'NONE',  ( 0.000000000000000000, 0.000000000000000000, -1.000000000000000000 ) ) ;
#453 = DIRECTION ( 'NONE',  ( 0.000000000000000000, 1.000000000000000000, 0.000000000000000000 ) ) ;
#454 = ORIENTED_EDGE ( 'NONE', *, *, #79, .F. ) ;
#455 = LOCAL_TIME ( 22, 16, 35.00000000000000000, #412 ) ;
#456 = DIRECTION ( 'NONE',  ( 0.000000000000000000, -1.000000000000000000, 0.000000000000000000 ) ) ;
#457 = ORIENTED_EDGE ( 'NONE', *, *, #597, .F. ) ;
#458 = PERSON_AND_ORGANIZATION_ROLE ( 'design_owner' ) ;
#459 = CARTESIAN_POINT ( 'NONE',  ( 11.92999999999999972, -2.666913797474654972E-15, 0.000000000000000000 ) ) ;
#460 = CARTESIAN_POINT ( 'NONE',  ( -9.230000000000000426, 3.380000000000000338, 8.000000000000000000 ) ) ;
#461 = ORIENTED_EDGE ( 'NONE', *, *, #49, .T. ) ;
#462 = AXIS2_PLACEMENT_3D ( 'NONE', #448, #554, #62 ) ;
#463 = DATE_AND_TIME ( #451, #455 ) ;
#464 = EDGE_CURVE ( 'NONE', #581, #571, #16, .T. ) ;
#465 = CARTESIAN_POINT ( 'NONE',  ( -4.229999999999997762, -3.380000000000003002, 13.00000000000000178 ) ) ;
#466 = LINE ( 'NONE', #525, #369 ) ;
#467 = ORIENTED_EDGE ( 'NONE', *, *, #464, .F. ) ;
#468 = APPLICATION_PROTOCOL_DEFINITION ( 'international standard', 'config_control_design', 1994, #379 ) ;
#469 = AXIS2_PLACEMENT_3D ( 'NONE', #276, #500, #7 ) ;
#470 = VERTEX_POINT ( 'NONE', #292 ) ;
#471 = EDGE_CURVE ( 'NONE', #289, #513, #177, .T. ) ;
#472 = ORIENTED_EDGE ( 'NONE', *, *, #359, .F. ) ;
#473 = ORIENTED_EDGE ( 'NONE', *, *, #627, .T. ) ;
#474 = DIRECTION ( 'NONE',  ( -1.000000000000000000, 8.673617379884039170E-17, 0.000000000000000000 ) ) ;
#475 = ORIENTED_EDGE ( 'NONE', *, *, #128, .F. ) ;
#476 = AXIS2_PLACEMENT_3D ( 'NONE', #55, #217, #438 ) ;
#477 = EDGE_LOOP ( 'NONE', ( #428, #355, #206, #120 ) ) ;
#478 = DIRECTION ( 'NONE',  ( 0.000000000000000000, 0.000000000000000000, 1.000000000000000000 ) ) ;
#479 = ORIENTED_EDGE ( 'NONE', *, *, #84, .F. ) ;
#480 = FACE_OUTER_BOUND ( 'NONE', #21, .T. ) ;
#481 = DIRECTION ( 'NONE',  ( -0.000000000000000000, 1.000000000000000000, 0.000000000000000000 ) ) ;
#482 = VERTEX_POINT ( 'NONE', #346 ) ;
#483 = ORIENTED_EDGE ( 'NONE', *, *, #207, .F. ) ;
#484 = CARTESIAN_POINT ( 'NONE',  ( -17.23000000000000043, -1.379999999999999893, 18.00000000000000355 ) ) ;
#485 = APPROVAL ( #22, 'UNSPECIFIED' ) ;
#486 = EDGE_CURVE ( 'NONE', #577, #535, #240, .T. ) ;
#487 = CARTESIAN_POINT ( 'NONE',  ( 14.42999999999999972, -1.379999999999999893, 5.500000000000000000 ) ) ;
#488 = PLANE ( 'NONE',  #610 ) ;
#489 = DIRECTION ( 'NONE',  ( 0.000000000000000000, 0.000000000000000000, -1.000000000000000000 ) ) ;
#490 = EDGE_CURVE ( 'NONE', #411, #470, #691, .T. ) ;
#491 = LOCAL_TIME ( 22, 16, 35.00000000000000000, #690 ) ;
#492 = DIRECTION ( 'NONE',  ( 1.000000000000000000, 0.000000000000000000, 0.000000000000000000 ) ) ;
#493 = CIRCLE ( 'NONE', #609, 1.499999999999999556 ) ;
#494 = CIRCLE ( 'NONE', #273, 1.499999999999999556 ) ;
#495 = LINE ( 'NONE', #600, #564 ) ;
#496 = CARTESIAN_POINT ( 'NONE',  ( -4.229999999999997762, 3.380000000000000338, 18.00000000000000355 ) ) ;
#497 = FACE_OUTER_BOUND ( 'NONE', #367, .T. ) ;
#498 = ORGANIZATION ( 'UNSPECIFIED', 'UNSPECIFIED', '' ) ;
#499 = ADVANCED_FACE ( 'NONE', ( #171 ), #519, .F. ) ;
#500 = DIRECTION ( 'NONE',  ( 1.318178933113075479E-16, 0.000000000000000000, 1.000000000000000000 ) ) ;
#501 = DIRECTION ( 'NONE',  ( 0.000000000000000000, 1.000000000000000000, 0.000000000000000000 ) ) ;
#502 = AXIS2_PLACEMENT_3D ( 'NONE', #66, #72, #559 ) ;
#503 = VERTEX_POINT ( 'NONE', #246 ) ;
#504 = CARTESIAN_POINT ( 'NONE',  ( 16.92999999999999972, -3.380000000000000338, 8.000000000000000000 ) ) ;
#505 = DIRECTION ( 'NONE',  ( 0.000000000000000000, 1.000000000000000000, 0.000000000000000000 ) ) ;
#506 = CARTESIAN_POINT ( 'NONE',  ( 16.92999999999999972, -3.380000000000000338, 18.00000000000000355 ) ) ;
#507 = ORIENTED_EDGE ( 'NONE', *, *, #490, .T. ) ;
#508 = LINE ( 'NONE', #344, #220 ) ;
#509 = ORIENTED_EDGE ( 'NONE', *, *, #517, .F. ) ;
#510 = CARTESIAN_POINT ( 'NONE',  ( 16.92999999999999972, -1.379999999999999893, 18.00000000000000355 ) ) ;
#511 = DIRECTION ( 'NONE',  ( 0.000000000000000000, 0.000000000000000000, -1.000000000000000000 ) ) ;
#512 = CARTESIAN_POINT ( 'NONE',  ( 14.42999999999999972, -3.380000000000000338, 4.000000000000000000 ) ) ;
#513 = VERTEX_POINT ( 'NONE', #465 ) ;
#514 = APPROVAL_STATUS ( 'not_yet_approved' ) ;
#515 = FACE_OUTER_BOUND ( 'NONE', #362, .T. ) ;
#516 = CARTESIAN_POINT ( 'NONE',  ( 11.92999999999999972, -1.379999999999999893, 18.00000000000000355 ) ) ;
#517 = EDGE_CURVE ( 'NONE', #535, #482, #397, .T. ) ;
#518 = DATE_TIME_ROLE ( 'classification_date' ) ;
#519 = PLANE ( 'NONE',  #10 ) ;
#520 = DIRECTION ( 'NONE',  ( -1.000000000000000000, -2.235468396877329909E-16, 0.000000000000000000 ) ) ;
#521 = VECTOR ( 'NONE', #511, 1000.000000000000000 ) ;
#522 = ORIENTED_EDGE ( 'NONE', *, *, #245, .T. ) ;
#523 = PERSON_AND_ORGANIZATION ( #641, #498 ) ;
#524 = EDGE_CURVE ( 'NONE', #290, #179, #20, .T. ) ;
#525 = CARTESIAN_POINT ( 'NONE',  ( -12.23000000000000043, 6.379999999999999893, 18.00000000000000355 ) ) ;
#526 = ORIENTED_EDGE ( 'NONE', *, *, #486, .F. ) ;
#527 = VERTEX_POINT ( 'NONE', #623 ) ;
#528 = ORIENTED_EDGE ( 'NONE', *, *, #627, .F. ) ;
#529 = ORIENTED_EDGE ( 'NONE', *, *, #207, .T. ) ;
#530 = FACE_OUTER_BOUND ( 'NONE', #709, .T. ) ;
#531 = ORIENTED_EDGE ( 'NONE', *, *, #415, .F. ) ;
#532 = VECTOR ( 'NONE', #211, 1000.000000000000000 ) ;
#533 = ORIENTED_EDGE ( 'NONE', *, *, #486, .T. ) ;
#534 = DIRECTION ( 'NONE',  ( 0.000000000000000000, 1.000000000000000000, 0.000000000000000000 ) ) ;
#535 = VERTEX_POINT ( 'NONE', #516 ) ;
#536 = EDGE_LOOP ( 'NONE', ( #310, #399, #628, #579 ) ) ;
#537 = VECTOR ( 'NONE', #350, 1000.000000000000000 ) ;
#538 = PRODUCT_DEFINITION ( 'UNKNOWN', '', #429, #608 ) ;
#539 = EDGE_CURVE ( 'NONE', #644, #503, #508, .T. ) ;
#540 = DIRECTION ( 'NONE',  ( 1.000000000000000000, 0.000000000000000000, -1.318178933113075479E-16 ) ) ;
#541 = EDGE_CURVE ( 'NONE', #181, #24, #431, .T. ) ;
#542 = PLANE ( 'NONE',  #122 ) ;
#543 = LINE ( 'NONE', #160, #191 ) ;
#544 = CARTESIAN_POINT ( 'NONE',  ( -4.229999999999997762, -17.45784074352313553, 13.00000000000000178 ) ) ;
#545 = CARTESIAN_POINT ( 'NONE',  ( 0.000000000000000000, -3.380000000000000338, 0.000000000000000000 ) ) ;
#546 = EDGE_CURVE ( 'NONE', #148, #674, #74, .T. ) ;
#547 = FACE_OUTER_BOUND ( 'NONE', #560, .T. ) ;
#548 =( NAMED_UNIT ( * ) PLANE_ANGLE_UNIT ( ) SI_UNIT ( $, .RADIAN. ) );
#549 = CIRCLE ( 'NONE', #683, 1.499999999999999556 ) ;
#550 = FACE_OUTER_BOUND ( 'NONE', #252, .T. ) ;
#551 = LINE ( 'NONE', #545, #556 ) ;
#552 = CIRCLE ( 'NONE', #714, 1.499999999999999556 ) ;
#553 = DIRECTION ( 'NONE',  ( -8.673617379884039170E-17, -1.000000000000000000, 0.000000000000000000 ) ) ;
#554 = DIRECTION ( 'NONE',  ( -1.000000000000000000, 0.000000000000000000, 0.000000000000000000 ) ) ;
#555 = DIRECTION ( 'NONE',  ( 0.000000000000000000, 0.000000000000000000, -1.000000000000000000 ) ) ;
#556 = VECTOR ( 'NONE', #380, 1000.000000000000000 ) ;
#557 = APPROVAL ( #514, 'UNSPECIFIED' ) ;
#558 = CC_DESIGN_PERSON_AND_ORGANIZATION_ASSIGNMENT ( #136, #296, ( #422 ) ) ;
#559 = DIRECTION ( 'NONE',  ( 0.000000000000000000, 0.000000000000000000, 1.000000000000000000 ) ) ;
#560 = EDGE_LOOP ( 'NONE', ( #678, #697, #99, #97 ) ) ;
#561 = ORIENTED_EDGE ( 'NONE', *, *, #94, .F. ) ;
#562 = EDGE_CURVE ( 'NONE', #181, #18, #238, .T. ) ;
#563 = CARTESIAN_POINT ( 'NONE',  ( 11.92999999999999972, -1.379999999999999893, 18.00000000000000355 ) ) ;
#564 = VECTOR ( 'NONE', #218, 1000.000000000000000 ) ;
#565 = DIRECTION ( 'NONE',  ( 1.000000000000000000, 0.000000000000000000, 0.000000000000000000 ) ) ;
#566 = DIRECTION ( 'NONE',  ( 0.000000000000000000, 1.000000000000000000, 0.000000000000000000 ) ) ;
#567 = ORIENTED_EDGE ( 'NONE', *, *, #363, .T. ) ;
#568 = PERSON_AND_ORGANIZATION_ROLE ( 'design_supplier' ) ;
#569 = DIRECTION ( 'NONE',  ( 0.000000000000000000, -0.000000000000000000, 1.000000000000000000 ) ) ;
#570 = EDGE_CURVE ( 'NONE', #535, #237, #232, .T. ) ;
#571 = VERTEX_POINT ( 'NONE', #277 ) ;
#572 = COORDINATED_UNIVERSAL_TIME_OFFSET ( 5, 0, .BEHIND. ) ;
#573 = CARTESIAN_POINT ( 'NONE',  ( 5.984795992119979545E-17, -1.379999999999999893, 0.000000000000000000 ) ) ;
#574 = ORIENTED_EDGE ( 'NONE', *, *, #387, .F. ) ;
#575 = ORIENTED_EDGE ( 'NONE', *, *, #410, .T. ) ;
#576 = CARTESIAN_POINT ( 'NONE',  ( -4.229999999999997762, 3.380000000000000338, 18.00000000000000355 ) ) ;
#577 = VERTEX_POINT ( 'NONE', #12 ) ;
#578 = ORIENTED_EDGE ( 'NONE', *, *, #332, .T. ) ;
#579 = ORIENTED_EDGE ( 'NONE', *, *, #524, .T. ) ;
#580 = CC_DESIGN_APPROVAL ( #485, ( #429 ) ) ;
#581 = VERTEX_POINT ( 'NONE', #285 ) ;
#582 = ORIENTED_EDGE ( 'NONE', *, *, #562, .F. ) ;
#583 = VECTOR ( 'NONE', #604, 1000.000000000000000 ) ;
#584 = DIRECTION ( 'NONE',  ( 0.000000000000000000, 1.000000000000000000, 0.000000000000000000 ) ) ;
#585 = AXIS2_PLACEMENT_3D ( 'NONE', #613, #388, #445 ) ;
#586 = VECTOR ( 'NONE', #47, 1000.000000000000000 ) ;
#587 = ORIENTED_EDGE ( 'NONE', *, *, #108, .T. ) ;
#588 = LINE ( 'NONE', #255, #129 ) ;
#589 = CARTESIAN_POINT ( 'NONE',  ( 16.92999999999999972, -1.379999999999999893, 0.000000000000000000 ) ) ;
#590 = LINE ( 'NONE', #649, #372 ) ;
#591 = EDGE_CURVE ( 'NONE', #114, #577, #665, .T. ) ;
#592 = CYLINDRICAL_SURFACE ( 'NONE', #251, 1.499999999999999556 ) ;
#593 = VECTOR ( 'NONE', #452, 1000.000000000000000 ) ;
#594 = CARTESIAN_POINT ( 'NONE',  ( -9.230000000000000426, 3.380000000000000338, 18.00000000000000355 ) ) ;
#595 = FACE_OUTER_BOUND ( 'NONE', #198, .T. ) ;
#596 = PLANE ( 'NONE',  #336 ) ;
#597 = EDGE_CURVE ( 'NONE', #265, #258, #449, .T. ) ;
#598 = CARTESIAN_POINT ( 'NONE',  ( 0.000000000000000000, 0.000000000000000000, 18.00000000000000355 ) ) ;
#599 = FACE_BOUND ( 'NONE', #426, .T. ) ;
#600 = CARTESIAN_POINT ( 'NONE',  ( 8.930000000000001492, -17.45784074352313553, 13.00000000000000000 ) ) ;
#601 = LINE ( 'NONE', #658, #318 ) ;
#602 = MANIFOLD_SOLID_BREP ( '\X2\00d8\X0\3.0 (3) Diameter Hole1[1]', #26 ) ;
#603 = FACE_BOUND ( 'NONE', #87, .T. ) ;
#604 = DIRECTION ( 'NONE',  ( -1.000000000000000000, 0.000000000000000000, 0.000000000000000000 ) ) ;
#605 = CARTESIAN_POINT ( 'NONE',  ( -14.73000000000000043, -1.379999999999999893, 2.500000000000000000 ) ) ;
#606 = DIRECTION ( 'NONE',  ( 0.000000000000000000, 0.000000000000000000, -1.000000000000000000 ) ) ;
#607 = DIRECTION ( 'NONE',  ( 1.000000000000000000, 5.204170427930419311E-16, 0.000000000000000000 ) ) ;
#608 = DESIGN_CONTEXT ( 'detailed design', #379, 'design' ) ;
#609 = AXIS2_PLACEMENT_3D ( 'NONE', #73, #404, #78 ) ;
#610 = AXIS2_PLACEMENT_3D ( 'NONE', #154, #266, #715 ) ;
#611 = ADVANCED_FACE ( 'NONE', ( #603, #547 ), #596, .T. ) ;
#612 = DIRECTION ( 'NONE',  ( 0.000000000000000000, 1.000000000000000000, 0.000000000000000000 ) ) ;
#613 = CARTESIAN_POINT ( 'NONE',  ( 5.984795992119979545E-17, -1.379999999999999893, 8.000000000000000000 ) ) ;
#614 = ORIENTED_EDGE ( 'NONE', *, *, #701, .T. ) ;
#615 = ADVANCED_FACE ( 'NONE', ( #599, #103 ), #542, .F. ) ;
#616 = CARTESIAN_POINT ( 'NONE',  ( -12.23000000000000043, -1.379999999999999893, 18.00000000000000355 ) ) ;
#617 = DIRECTION ( 'NONE',  ( 0.000000000000000000, 0.000000000000000000, 1.000000000000000000 ) ) ;
#618 = CARTESIAN_POINT ( 'NONE',  ( 14.42999999999999972, -1.379999999999999893, 2.500000000000000000 ) ) ;
#619 = ORIENTED_EDGE ( 'NONE', *, *, #152, .T. ) ;
#620 = PERSON_AND_ORGANIZATION ( #641, #498 ) ;
#621 = DIRECTION ( 'NONE',  ( 0.000000000000000000, 1.000000000000000000, 0.000000000000000000 ) ) ;
#622 = VECTOR ( 'NONE', #275, 1000.000000000000000 ) ;
#623 = CARTESIAN_POINT ( 'NONE',  ( -9.230000000000000426, -3.380000000000000338, 18.00000000000000355 ) ) ;
#624 = APPROVAL_DATE_TIME ( #131, #557 ) ;
#625 = LINE ( 'NONE', #351, #299 ) ;
#626 = ORIENTED_EDGE ( 'NONE', *, *, #664, .T. ) ;
#627 = EDGE_CURVE ( 'NONE', #289, #300, #112, .T. ) ;
#628 = ORIENTED_EDGE ( 'NONE', *, *, #104, .F. ) ;
#629 = CIRCLE ( 'NONE', #693, 1.499999999999988232 ) ;
#630 = COORDINATED_UNIVERSAL_TIME_OFFSET ( 5, 0, .BEHIND. ) ;
#631 = VECTOR ( 'NONE', #297, 1000.000000000000000 ) ;
#632 = CARTESIAN_POINT ( 'NONE',  ( 14.42999999999999972, -1.379999999999999893, 4.000000000000000000 ) ) ;
#633 = ORIENTED_EDGE ( 'NONE', *, *, #320, .T. ) ;
#634 = APPROVAL_ROLE ( '' ) ;
#635 = CARTESIAN_POINT ( 'NONE',  ( 14.42999999999999972, -1.379999999999999893, 2.500000000000000000 ) ) ;
#636 = ORIENTED_EDGE ( 'NONE', *, *, #701, .F. ) ;
#637 = ADVANCED_FACE ( 'NONE', ( #595 ), #488, .F. ) ;
#638 = ORIENTED_EDGE ( 'NONE', *, *, #63, .T. ) ;
#639 = ORIENTED_EDGE ( 'NONE', *, *, #278, .F. ) ;
#640 = CARTESIAN_POINT ( 'NONE',  ( -14.73000000000000043, -1.379999999999999893, 5.500000000000000000 ) ) ;
#641 = PERSON ( 'UNSPECIFIED', 'UNSPECIFIED', 'UNSPECIFIED', ('UNSPECIFIED'), ('UNSPECIFIED'), ('UNSPECIFIED') ) ;
#642 = ORIENTED_EDGE ( 'NONE', *, *, #387, .T. ) ;
#643 = LINE ( 'NONE', #90, #532 ) ;
#644 = VERTEX_POINT ( 'NONE', #484 ) ;
#645 = ORIENTED_EDGE ( 'NONE', *, *, #653, .F. ) ;
#646 = EDGE_CURVE ( 'NONE', #24, #308, #209, .T. ) ;
#647 = CARTESIAN_POINT ( 'NONE',  ( -1.196959198423998128E-16, -1.379999999999999893, 0.000000000000000000 ) ) ;
#648 = AXIS2_PLACEMENT_3D ( 'NONE', #632, #85, #354 ) ;
#649 = CARTESIAN_POINT ( 'NONE',  ( -9.230000000000000426, -3.380000000000000338, 18.00000000000000355 ) ) ;
#650 = ORIENTED_EDGE ( 'NONE', *, *, #517, .T. ) ;
#651 = LOCAL_TIME ( 22, 16, 35.00000000000000000, #187 ) ;
#652 = DIRECTION ( 'NONE',  ( -0.000000000000000000, 1.000000000000000000, 0.000000000000000000 ) ) ;
#653 = EDGE_CURVE ( 'NONE', #416, #117, #375, .T. ) ;
#654 = VECTOR ( 'NONE', #173, 1000.000000000000000 ) ;
#655 = AXIS2_PLACEMENT_3D ( 'NONE', #270, #384, #439 ) ;
#656 = CARTESIAN_POINT ( 'NONE',  ( -4.229999999999997762, -17.45784074352313553, 18.00000000000000355 ) ) ;
#657 = CARTESIAN_POINT ( 'NONE',  ( -4.229999999999997762, -3.380000000000003002, 18.00000000000000355 ) ) ;
#658 = CARTESIAN_POINT ( 'NONE',  ( 1.759009604640485155E-15, -3.380000000000000338, 0.000000000000000000 ) ) ;
#659 = CARTESIAN_POINT ( 'NONE',  ( 11.92999999999999972, 6.379999999999999893, 8.000000000000000000 ) ) ;
#660 = CARTESIAN_POINT ( 'NONE',  ( -9.230000000000000426, -3.380000000000000338, 0.000000000000000000 ) ) ;
#661 = EDGE_CURVE ( 'NONE', #527, #263, #590, .T. ) ;
#662 = DIRECTION ( 'NONE',  ( 0.000000000000000000, 0.000000000000000000, -1.000000000000000000 ) ) ;
#663 = CARTESIAN_POINT ( 'NONE',  ( 16.92999999999999972, -3.380000000000000338, 0.000000000000000000 ) ) ;
#664 = EDGE_CURVE ( 'NONE', #196, #179, #374, .T. ) ;
#665 = LINE ( 'NONE', #391, #151 ) ;
#666 = CARTESIAN_POINT ( 'NONE',  ( -14.73000000000000043, -1.379999999999999893, 5.500000000000000000 ) ) ;
#667 = DIRECTION ( 'NONE',  ( 0.000000000000000000, 0.000000000000000000, -1.000000000000000000 ) ) ;
#668 = ORIENTED_EDGE ( 'NONE', *, *, #591, .F. ) ;
#669 = ADVANCED_FACE ( 'NONE', ( #203 ), #420, .T. ) ;
#670 = CARTESIAN_POINT ( 'NONE',  ( -14.73000000000000043, -1.379999999999999893, 2.500000000000000000 ) ) ;
#671 = ORIENTED_EDGE ( 'NONE', *, *, #471, .T. ) ;
#672 = DIRECTION ( 'NONE',  ( 2.235468396877329909E-16, 1.000000000000000000, 0.000000000000000000 ) ) ;
#673 = CARTESIAN_POINT ( 'NONE',  ( 16.92999999999999972, 0.000000000000000000, 8.000000000000000000 ) ) ;
#674 = VERTEX_POINT ( 'NONE', #589 ) ;
#675 = ORIENTED_EDGE ( 'NONE', *, *, #539, .T. ) ;
#676 = PERSON_AND_ORGANIZATION ( #641, #498 ) ;
#677 = FACE_OUTER_BOUND ( 'NONE', #303, .T. ) ;
#678 = ORIENTED_EDGE ( 'NONE', *, *, #231, .F. ) ;
#679 = CARTESIAN_POINT ( 'NONE',  ( 0.000000000000000000, 0.000000000000000000, 0.000000000000000000 ) ) ;
#680 = ORIENTED_EDGE ( 'NONE', *, *, #710, .F. ) ;
#681 =( LENGTH_UNIT ( ) NAMED_UNIT ( * ) SI_UNIT ( .MILLI., .METRE. ) );
#682 = DIRECTION ( 'NONE',  ( 1.000000000000000000, 0.000000000000000000, 0.000000000000000000 ) ) ;
#683 = AXIS2_PLACEMENT_3D ( 'NONE', #82, #453, #347 ) ;
#684 = EDGE_CURVE ( 'NONE', #114, #148, #446, .T. ) ;
#685 = CARTESIAN_POINT ( 'NONE',  ( -4.230000000000004867, -3.380000000000003002, 13.00000000000000178 ) ) ;
#686 = CYLINDRICAL_SURFACE ( 'NONE', #92, 1.499999999999999556 ) ;
#687 = VECTOR ( 'NONE', #606, 1000.000000000000000 ) ;
#688 = VECTOR ( 'NONE', #434, 1000.000000000000000 ) ;
#689 = ORIENTED_EDGE ( 'NONE', *, *, #94, .T. ) ;
#690 = COORDINATED_UNIVERSAL_TIME_OFFSET ( 5, 0, .BEHIND. ) ;
#691 = LINE ( 'NONE', #228, #631 ) ;
#692 = AXIS2_PLACEMENT_3D ( 'NONE', #512, #612, #348 ) ;
#693 = AXIS2_PLACEMENT_3D ( 'NONE', #158, #501, #436 ) ;
#694 = APPROVAL_ROLE ( '' ) ;
#695 = VECTOR ( 'NONE', #288, 1000.000000000000000 ) ;
#696 = DIRECTION ( 'NONE',  ( -2.235468396877329909E-16, 1.000000000000000000, 0.000000000000000000 ) ) ;
#697 = ORIENTED_EDGE ( 'NONE', *, *, #309, .F. ) ;
#698 = ADVANCED_FACE ( 'NONE', ( #116 ), #226, .F. ) ;
#699 = ORIENTED_EDGE ( 'NONE', *, *, #444, .F. ) ;
#700 = CARTESIAN_POINT ( 'NONE',  ( 0.000000000000000000, 3.380000000000000338, 8.000000000000000000 ) ) ;
#701 = EDGE_CURVE ( 'NONE', #263, #117, #51, .T. ) ;
#702 = ORIENTED_EDGE ( 'NONE', *, *, #128, .T. ) ;
#703 = VERTEX_POINT ( 'NONE', #325 ) ;
#704 = FACE_BOUND ( 'NONE', #230, .T. ) ;
#705 = DIRECTION ( 'NONE',  ( -2.235468396877329909E-16, 1.000000000000000000, 0.000000000000000000 ) ) ;
#706 = ORIENTED_EDGE ( 'NONE', *, *, #156, .T. ) ;
#707 = PLANE ( 'NONE',  #115 ) ;
#708 = DIRECTION ( 'NONE',  ( 1.000000000000000000, 0.000000000000000000, 0.000000000000000000 ) ) ;
#709 = EDGE_LOOP ( 'NONE', ( #233, #352, #225, #313 ) ) ;
#710 = EDGE_CURVE ( 'NONE', #18, #308, #552, .T. ) ;
#711 = EDGE_LOOP ( 'NONE', ( #361, #70, #575, #200 ) ) ;
#712 = DIRECTION ( 'NONE',  ( -1.000000000000000000, 0.000000000000000000, 0.000000000000000000 ) ) ;
#713 = VECTOR ( 'NONE', #127, 1000.000000000000000 ) ;
#714 = AXIS2_PLACEMENT_3D ( 'NONE', #271, #440, #617 ) ;
#715 = DIRECTION ( 'NONE',  ( 0.000000000000000000, 0.000000000000000000, -1.000000000000000000 ) ) ;
ENDSEC;
END-ISO-10303-21;
